<svg width="32" height="32" viewBox="0 0 32 32" fill="none" xmlns="http://www.w3.org/2000/svg">
<path d="M7.29249 12.7076L3.29249 8.70757C3.19952 8.6147 3.12576 8.50441 3.07543 8.38301C3.02511 8.26161 2.99921 8.13148 2.99921 8.00007C2.99921 7.86865 3.02511 7.73853 3.07543 7.61713C3.12576 7.49573 3.19952 7.38544 3.29249 7.29257L7.29249 3.29257C7.48013 3.10493 7.73463 2.99951 7.99999 2.99951C8.26536 2.99951 8.51985 3.10493 8.70749 3.29257C8.89513 3.48021 9.00055 3.7347 9.00055 4.00007C9.00055 4.26543 8.89513 4.51993 8.70749 4.70757L5.41374 8.00007L8.70749 11.2926C8.89513 11.4802 9.00055 11.7347 9.00055 12.0001C9.00055 12.2654 8.89513 12.5199 8.70749 12.7076C8.51985 12.8952 8.26536 13.0006 7.99999 13.0006C7.73463 13.0006 7.48013 12.8952 7.29249 12.7076ZM12.2925 12.7076C12.3854 12.8005 12.4957 12.8743 12.6171 12.9246C12.7385 12.975 12.8686 13.0009 13 13.0009C13.1314 13.0009 13.2615 12.975 13.3829 12.9246C13.5043 12.8743 13.6146 12.8005 13.7075 12.7076L17.7075 8.70757C17.8005 8.6147 17.8742 8.50441 17.9246 8.38301C17.9749 8.26161 18.0008 8.13148 18.0008 8.00007C18.0008 7.86865 17.9749 7.73853 17.9246 7.61713C17.8742 7.49573 17.8005 7.38544 17.7075 7.29257L13.7075 3.29257C13.5199 3.10493 13.2654 2.99951 13 2.99951C12.7346 2.99951 12.4801 3.10493 12.2925 3.29257C12.1049 3.48021 11.9994 3.7347 11.9994 4.00007C11.9994 4.26543 12.1049 4.51993 12.2925 4.70757L15.5862 8.00007L12.2925 11.2926C12.1995 11.3854 12.1258 11.4957 12.0754 11.6171C12.0251 11.7385 11.9992 11.8687 11.9992 12.0001C11.9992 12.1315 12.0251 12.2616 12.0754 12.383C12.1258 12.5044 12.1995 12.6147 12.2925 12.7076ZM25 5.00007H22C21.7348 5.00007 21.4804 5.10542 21.2929 5.29296C21.1053 5.4805 21 5.73485 21 6.00007C21 6.26528 21.1053 6.51964 21.2929 6.70717C21.4804 6.89471 21.7348 7.00007 22 7.00007H25V25.0001H6.99999V17.0001C6.99999 16.7349 6.89464 16.4805 6.7071 16.293C6.51956 16.1054 6.26521 16.0001 5.99999 16.0001C5.73478 16.0001 5.48042 16.1054 5.29289 16.293C5.10535 16.4805 4.99999 16.7349 4.99999 17.0001V25.0001C4.99999 25.5305 5.21071 26.0392 5.58578 26.4143C5.96085 26.7894 6.46956 27.0001 6.99999 27.0001H25C25.5304 27.0001 26.0391 26.7894 26.4142 26.4143C26.7893 26.0392 27 25.5305 27 25.0001V7.00007C27 6.46963 26.7893 5.96093 26.4142 5.58585C26.0391 5.21078 25.5304 5.00007 25 5.00007Z" fill="white"/>
</svg>
