<svg width="818" height="593" viewBox="0 0 818 593" fill="none" xmlns="http://www.w3.org/2000/svg">
<path d="M658.481 20.0063C660.579 79.1897 652.817 139.162 637.087 185.027C627.519 212.906 615.089 235.896 600.141 253.349C596.007 258.18 591.678 262.584 587.165 266.558C584.593 268.82 581.96 270.944 579.266 272.925C575.462 272.049 571.598 271.034 567.683 269.877C570.26 267.607 572.781 265.195 575.23 262.645C577.078 260.729 578.886 258.737 580.659 256.668C595.607 239.215 608.037 216.225 617.605 188.346C633.335 142.481 641.097 82.5118 638.999 23.3252L658.481 20.0063Z" fill="white"/>
<path d="M697.638 13.3324C699.736 72.5158 691.974 132.488 676.244 178.353C666.682 206.232 654.251 229.222 639.304 246.675C630.436 257.025 620.675 265.429 610.105 271.824C607.305 273.52 604.449 275.072 601.537 276.483C597.94 276.175 594.281 275.726 590.572 275.133C593.377 273.437 596.121 271.596 598.805 269.618C606.243 264.145 613.224 257.604 619.725 250.011C634.673 232.558 647.103 209.568 656.666 181.689C672.396 135.825 680.157 75.8524 678.059 16.669L697.638 13.3324Z" fill="white"/>
<path d="M736.8 6.65581C738.898 65.8424 731.137 125.815 715.407 171.679C705.844 199.558 693.414 222.548 678.466 240.001C664.881 255.862 649.196 267.145 631.711 273.657C628.688 274.782 625.615 275.764 622.486 276.603C619.107 276.873 615.671 276.994 612.179 276.976C615.202 275.851 618.164 274.58 621.075 273.17C634.996 266.428 647.659 256.447 658.888 243.338C673.835 225.885 686.266 202.895 695.828 175.016C711.558 129.152 719.32 69.179 717.221 9.99243L736.8 6.65581Z" fill="white"/>
<path d="M775.866 -3.26621e-05C777.964 59.1865 770.202 119.156 754.472 165.02C744.91 192.899 732.479 215.889 717.532 233.342C701.012 252.636 681.381 265.152 659.187 270.551C656.802 271.13 654.388 271.628 651.944 272.046L632.462 275.365C634.911 274.947 637.326 274.449 639.705 273.87C661.899 268.471 681.524 255.952 698.05 236.661C712.997 219.208 725.428 196.218 734.99 168.339C750.72 122.475 758.482 62.5024 756.384 3.31893L775.866 -3.26621e-05Z" fill="white"/>
<path d="M524.626 293.285C523.857 293.493 523.098 293.69 522.321 293.879C519.936 294.458 517.521 294.957 515.072 295.375C513.979 295.561 512.884 295.729 511.775 295.884C477.513 300.652 437.011 289.903 390.987 263.84C384.52 260.175 377.946 256.212 371.262 251.945C371.364 246.541 371.694 241.566 372.262 237.008C376.916 239.77 381.757 242.798 386.81 246.09C388.123 246.945 389.434 247.792 390.744 248.626C441.957 281.322 486.88 296.294 524.626 293.285Z" fill="#0054A1"/>
<path d="M563.729 286.618C562.95 286.83 562.168 287.028 561.381 287.221C558.996 287.803 556.581 288.299 554.137 288.716C553.045 288.903 551.944 289.073 550.835 289.229C548.633 289.533 546.405 289.778 544.156 289.955L544.15 289.955C540.792 290.221 537.379 290.347 533.91 290.327C497.382 290.131 454.635 274.204 406.389 242.753C401.304 239.441 396.428 236.396 391.754 233.62C385.781 230.069 380.125 226.951 374.755 224.248C375.851 220.375 377.205 216.941 378.835 213.933C383.702 215.836 388.838 218.143 394.25 220.871C403.853 225.7 414.361 231.848 425.967 239.417C469.604 267.863 508.745 283.609 542.853 286.503C546.433 286.805 549.958 286.968 553.428 286.99C556.919 287.009 560.355 286.888 563.729 286.618Z" fill="#0054A1"/>
<path d="M612.879 278.706L593.3 282.042C592.207 282.229 591.107 282.4 589.997 282.552C587.801 282.859 585.579 283.1 583.329 283.277C579.95 283.547 576.509 283.671 573.011 283.65C569.525 283.628 565.978 283.467 562.38 283.156C558.8 282.855 555.158 282.407 551.466 281.817C520.014 276.807 484.583 261.52 445.551 236.079C427.344 224.207 411.846 215.83 398.343 210.568C396.888 210.001 395.455 209.471 394.045 208.978C390.761 207.825 387.598 206.872 384.555 206.125C386.731 203.942 389.188 202.176 391.931 200.816C395.724 201.062 399.774 201.716 404.065 202.769C407.13 203.522 410.322 204.48 413.629 205.641C428.121 210.728 444.968 219.592 465.13 232.743C499.552 255.182 531.178 269.72 559.744 276.275C563.548 277.15 567.301 277.883 570.993 278.473C574.708 279.066 578.361 279.516 581.964 279.82C585.562 280.127 589.109 280.291 592.595 280.313C596.092 280.331 599.528 280.21 602.913 279.94C605.162 279.76 607.385 279.519 609.581 279.215C610.685 279.063 611.786 278.892 612.879 278.706Z" fill="#0054A1"/>
<path d="M651.939 272.05L632.457 275.369C631.364 275.555 630.264 275.726 629.16 275.878C626.958 276.182 624.736 276.427 622.486 276.604C619.107 276.874 615.671 276.995 612.18 276.976C608.693 276.954 605.14 276.79 601.537 276.483C597.94 276.176 594.281 275.726 590.572 275.133C586.857 274.541 583.092 273.806 579.266 272.925C575.462 272.049 571.598 271.034 567.683 269.877C542.24 262.347 514.526 248.841 484.714 229.406C464.547 216.255 447.7 207.392 433.208 202.304C421.174 198.08 410.739 196.557 402.084 197.762C401.7 197.813 401.317 197.874 400.94 197.938L420.422 194.619C420.799 194.552 421.182 194.494 421.566 194.439C430.221 193.235 440.655 194.758 452.689 198.982C467.182 204.073 484.029 212.936 504.195 226.084C529.41 242.52 553.124 254.717 575.23 262.645C579.262 264.091 583.238 265.394 587.165 266.558C591.097 267.721 594.979 268.741 598.805 269.619C602.625 270.497 606.396 271.232 610.105 271.825C613.819 272.417 617.472 272.864 621.075 273.171C624.678 273.475 628.22 273.639 631.711 273.658C635.208 273.676 638.643 273.552 642.022 273.279C644.255 273.103 646.462 272.862 648.642 272.559C649.751 272.404 650.846 272.236 651.939 272.05Z" fill="#0054A1"/>
<path d="M303.036 214.621C301.863 214.821 300.72 215.074 299.613 215.381C297.653 215.922 295.806 216.619 294.073 217.478C280.066 224.408 273.438 241.823 273.329 271.56C273.216 300.462 279.088 337.256 285.307 376.209C292.218 419.505 299.362 464.28 298.516 500.712C298.089 519.03 295.635 533.931 291.095 545.533C289.733 549.011 288.185 552.195 286.442 555.086C281.566 553.301 276.621 551.225 271.614 548.855C273.016 545.276 274.214 541.382 275.224 537.172C277.475 527.737 278.738 516.704 279.035 504.035C279.881 467.598 272.736 422.827 265.825 379.528C259.606 340.575 253.734 303.781 253.843 274.882C253.971 241.461 262.327 223.609 280.131 218.7C281.238 218.396 282.382 218.144 283.555 217.944L284.126 217.848L303.036 214.621Z" fill="#78BFFF"/>
<path d="M342.199 207.947C341.02 208.148 339.882 208.399 338.776 208.707C336.8 209.252 334.937 209.956 333.195 210.825C330.453 212.185 327.995 213.948 325.814 216.131C323.641 218.3 321.745 220.885 320.114 223.897C315.031 233.283 312.552 246.805 312.486 264.886C312.379 293.788 318.251 330.582 324.469 369.534C331.375 412.831 338.525 457.605 337.678 494.038C337 523.283 331.146 543.809 319.902 556.121C317.856 558.357 315.64 560.319 313.238 562.016C309.488 561.477 305.695 560.74 301.865 559.805C301.359 559.683 300.859 559.557 300.351 559.425C302.42 557.159 304.301 554.616 305.999 551.791C313.555 539.265 317.541 521.218 318.094 497.375C318.946 460.942 311.796 416.168 304.891 372.871C298.667 333.919 292.8 297.125 292.908 268.223C292.998 244.312 297.299 228.369 306.263 219.437C308.436 217.271 310.884 215.515 313.617 214.161C315.359 213.293 317.221 212.589 319.197 212.043C320.298 211.736 321.441 211.484 322.615 211.284L342.199 207.947Z" fill="#78BFFF"/>
<path d="M381.362 201.274C380.183 201.474 379.045 201.726 377.938 202.03C375.956 202.576 374.094 203.28 372.352 204.152C369.61 205.512 367.152 207.278 364.971 209.461C362.784 211.64 360.884 214.239 359.251 217.269C357.626 220.277 356.267 223.711 355.171 227.581C354.091 231.383 353.267 235.609 352.688 240.272C352.015 245.664 351.671 251.636 351.649 258.213C351.541 287.115 357.413 323.905 363.631 362.858C370.537 406.158 377.688 450.932 376.841 487.365C375.908 527.413 365.281 551.11 344.37 559.759C344.095 559.874 343.819 559.983 343.544 560.093C340.741 561.181 337.907 562.134 335.033 562.941C331.673 563.16 328.275 563.206 324.838 563.074C327.676 561.899 330.326 560.442 332.777 558.707C348.429 547.667 356.46 525.281 357.257 490.702C358.109 454.269 350.959 409.494 344.053 366.198C337.829 327.242 331.963 290.451 332.07 261.55C332.117 249.257 333.277 239.071 335.611 230.86C336.699 227.012 338.05 223.598 339.672 220.606C341.305 217.575 343.205 214.977 345.393 212.797C347.568 210.615 350.026 208.852 352.768 207.489C354.516 206.62 356.378 205.913 358.359 205.367C359.461 205.063 360.604 204.811 361.778 204.611L381.362 201.274Z" fill="#78BFFF"/>
<path d="M420.422 194.619C419.248 194.819 418.105 195.071 416.998 195.375C415.033 195.917 413.186 196.613 411.454 197.475C408.711 198.832 406.252 200.593 404.064 202.769C401.882 204.945 399.976 207.54 398.343 210.568C396.712 213.573 395.352 217.004 394.25 220.871C393.168 224.689 392.335 228.934 391.754 233.619C391.179 238.196 390.847 243.194 390.743 248.626C390.724 249.589 390.713 250.567 390.709 251.558C390.693 255.511 390.793 259.606 390.987 263.84C392.215 290.558 397.326 322.575 402.692 356.203C409.603 399.502 416.748 444.274 415.901 480.71C414.957 521.28 404.063 545.07 382.603 553.434C376.714 555.73 370.655 557.407 364.437 558.466L344.955 561.785C351.173 560.726 357.232 559.049 363.122 556.756C384.582 548.392 395.476 524.602 396.42 484.029C397.266 447.596 390.122 402.821 383.21 359.522C376.991 320.569 371.12 283.778 371.228 254.877C371.231 253.886 371.242 252.908 371.262 251.945C371.364 246.541 371.694 241.566 372.261 237.008C372.842 232.32 373.673 228.069 374.755 224.247C375.851 220.374 377.204 216.941 378.835 213.932C380.468 210.902 382.368 208.304 384.555 206.124C386.731 203.942 389.188 202.176 391.931 200.815C393.678 199.943 395.54 199.239 397.516 198.694C398.623 198.39 399.767 198.138 400.94 197.938L420.422 194.619Z" fill="#78BFFF"/>
<path d="M247.052 578.473L227.571 581.792C226.628 581.951 225.679 582.098 224.727 582.233C211.907 584.017 198.435 583.212 184.48 579.809C163.321 574.652 140.624 563.509 117.02 546.698C97.9385 533.106 78.2802 515.831 58.5845 495.347C26.339 461.815 4.4903 430.475 2.54586 427.652L22.0277 424.333C23.9716 427.152 45.8203 458.493 78.0658 492.025C97.7616 512.509 117.426 529.786 136.502 543.376C160.106 560.19 182.802 571.33 203.962 576.49C215.392 579.274 226.497 580.319 237.189 579.623C239.554 579.472 241.888 579.234 244.208 578.911C245.161 578.779 246.11 578.632 247.052 578.473Z" fill="white"/>
<path d="M286.215 571.798L266.636 575.135C265.689 575.295 264.739 575.442 263.787 575.574C261.456 575.9 259.099 576.136 256.719 576.288C253.375 576.505 249.988 576.551 246.563 576.425C239.062 576.152 231.383 575.062 223.54 573.152C202.386 567.992 179.69 556.852 156.08 540.039C137.004 526.449 117.34 509.172 97.6444 488.688C65.3989 455.155 43.5557 423.815 41.6062 420.995L61.1903 417.658C63.1342 420.478 84.9774 451.819 117.228 485.351C136.924 505.835 156.583 523.112 175.659 536.702C199.268 553.516 221.965 564.655 243.119 569.816C246.971 570.752 250.781 571.495 254.554 572.036C258.446 572.597 262.293 572.946 266.091 573.084L266.097 573.084C269.539 573.216 272.943 573.169 276.303 572.951C278.678 572.799 281.04 572.563 283.371 572.237C284.323 572.105 285.267 571.958 286.215 571.798Z" fill="white"/>
<path d="M315.449 566.278C312.279 567.177 309.055 567.904 305.793 568.459C304.851 568.621 303.902 568.769 302.95 568.9C300.618 569.227 298.262 569.463 295.881 569.614C292.521 569.833 289.123 569.879 285.681 569.747C281.861 569.61 277.991 569.256 274.076 568.69C270.325 568.147 266.532 567.41 262.703 566.479C262.22 566.361 261.737 566.241 261.253 566.117C240.507 560.81 218.316 549.795 195.243 533.366C176.167 519.776 156.503 502.498 136.807 482.014C104.561 448.482 82.7183 417.141 80.7689 414.322L100.353 410.985C102.297 413.805 124.14 445.145 156.391 478.677C176.087 499.161 195.746 516.439 214.821 530.029C232.818 542.842 250.277 552.361 266.934 558.447C271.61 560.157 276.221 561.596 280.767 562.762C281.275 562.894 281.776 563.02 282.281 563.142C286.111 564.077 289.904 564.814 293.66 565.353C297.569 565.92 301.44 566.273 305.259 566.411C308.697 566.543 312.095 566.496 315.449 566.278Z" fill="white"/>
<path d="M364.438 558.466L344.956 561.785C344.014 561.948 343.064 562.095 342.112 562.227C339.776 562.554 337.414 562.79 335.033 562.942C331.673 563.16 328.275 563.206 324.838 563.074C321.018 562.936 317.148 562.583 313.238 562.017C309.488 561.477 305.695 560.74 301.866 559.805C301.36 559.683 300.859 559.557 300.351 559.425C295.782 558.254 291.148 556.807 286.442 555.086C281.566 553.301 276.622 551.225 271.614 548.854C259.539 543.142 247.102 535.739 234.405 526.692C215.324 513.103 195.665 495.825 175.97 475.341C143.719 441.809 121.875 410.468 119.932 407.648L139.413 404.326C141.357 407.149 163.206 438.489 195.451 472.022C215.147 492.506 234.805 509.78 253.887 523.373C261.089 528.503 268.207 533.105 275.224 537.172C280.579 540.274 285.874 543.063 291.096 545.532C296.133 547.917 301.101 550.004 306 551.791C310.699 553.51 315.34 554.956 319.902 556.121C320.386 556.245 320.864 556.366 321.347 556.483C325.194 557.423 329.009 558.162 332.777 558.708C336.686 559.271 340.55 559.621 344.37 559.759C347.806 559.885 351.205 559.841 354.559 559.62C356.929 559.469 359.268 559.234 361.594 558.908C362.546 558.773 363.495 558.626 364.438 558.466Z" fill="white"/>
</svg>
