<svg width="1920" height="1139" viewBox="0 0 1920 1139" fill="none" xmlns="http://www.w3.org/2000/svg">
<path d="M-108.122 216.31C-107.008 217.61 4.7442 348.317 161.976 497.404C254.23 584.873 343.846 661.467 428.349 725.03C533.604 804.238 631.024 863.247 717.89 900.449C723.87 903.013 729.74 905.47 735.472 907.815C747.136 912.601 758.276 916.944 768.876 920.854C770.173 913.863 771.229 906.426 772.037 898.571C766.301 896.22 760.458 893.769 754.478 891.205C748.785 888.767 743.066 886.245 737.295 883.614C654.82 846.196 563.295 789.806 464.937 715.786C380.431 652.218 290.818 575.629 198.561 488.154C41.3219 339.075 -70.4334 208.364 -71.5407 207.055L-108.125 216.304L-108.122 216.31Z" fill="#1281E7"/>
<path d="M-181.668 234.893C-180.55 236.199 -68.7946 366.911 88.4305 515.987C180.691 603.467 270.321 680.045 354.807 743.619C460.059 822.821 557.492 881.833 644.358 919.035C675.507 932.361 703.125 942.806 727.372 950.398C737.877 953.689 747.744 956.444 756.995 958.658C759.692 953.35 762.001 947.467 763.985 941.057C753.988 937.924 743.424 934.313 732.283 930.209C716.403 924.377 699.366 917.552 681.121 909.746C594.254 872.544 496.835 813.536 391.562 734.338C307.076 670.765 217.454 594.178 125.196 506.704C-32.0286 357.608 -143.794 226.899 -144.885 225.599L-181.657 234.891L-181.668 234.893Z" fill="#1281E7"/>
<path d="M-255.2 253.479C-254.085 254.78 -142.333 385.486 14.8983 534.573C107.159 622.053 196.789 698.631 281.275 762.204C386.527 841.407 483.956 900.413 570.823 937.616C629.795 962.87 676.179 977.769 710.835 982.504C719.593 983.707 727.61 984.259 734.889 984.165C739.58 981.203 743.75 977.541 747.468 973.197C739.111 972.051 730.093 970.311 720.382 967.979C689.754 960.659 652.292 947.46 607.582 928.321C520.715 891.119 423.293 832.105 318.041 752.902C233.535 689.334 143.922 612.745 51.6676 525.276C-105.571 376.197 -217.323 245.491 -218.427 244.188L-255.2 253.479Z" fill="#1281E7"/>
<path d="M-328.547 272.018C-327.432 273.318 -215.677 404.03 -58.4486 553.112C33.809 640.586 123.432 717.172 207.927 780.743C313.19 859.943 410.612 918.957 497.479 956.16C585.076 993.656 644.883 1008.33 679.763 1000.81C680.559 1000.64 681.348 1000.45 682.121 1000.26L718.706 991.01C717.936 991.209 717.143 991.388 716.347 991.562C681.464 999.072 621.661 984.406 534.064 946.91C447.197 909.708 349.775 850.694 244.512 771.493C160.016 707.923 70.3936 631.337 -21.864 543.862C-179.092 394.781 -290.858 264.071 -291.962 262.768L-328.547 272.018Z" fill="#1281E7"/>
<path d="M902.802 944.486L939.12 935.306C940.959 934.837 942.742 934.312 944.434 933.713C1002.01 913.38 997.759 811.636 991.892 670.819C987.817 572.907 982.742 451.042 995.486 312.881C997.337 292.878 1001.25 274.954 1007.2 259.235C1009.47 253.247 1012.03 247.583 1014.86 242.246C1005.55 240.015 996.481 238.103 987.655 236.506C984.244 241.169 981.13 246.173 978.287 251.493C967.944 270.861 961.447 294.52 958.908 322.122C946.157 460.291 951.24 582.148 955.304 680.062C960.795 811.389 964.842 908.735 918.673 937.754L918.663 937.757C915.315 939.85 911.734 941.592 907.846 942.957C906.254 943.523 904.56 944.038 902.816 944.489L902.802 944.486Z" fill="#194F82"/>
<path d="M829.308 963.056L865.773 953.844C867.612 953.375 869.388 952.839 871.08 952.241C874.992 950.857 878.594 949.109 881.966 946.997C886.644 944.051 890.799 940.405 894.5 936.092C927.255 897.858 923.457 807.316 918.541 689.351C914.46 591.429 909.381 469.578 922.129 331.402C925.39 296.18 935.064 267.384 950.941 245.718C951.991 244.296 953.057 242.901 954.15 241.532C956.638 238.445 959.259 235.504 962.038 232.709C953.823 231.764 945.838 231.146 938.117 230.833C933.554 234.231 929.292 237.937 925.324 241.94C922.528 244.746 919.875 247.715 917.374 250.818C899.603 272.903 888.828 303.134 885.356 340.694C872.602 478.858 877.688 600.72 881.762 698.632C886.142 803.583 889.612 886.828 867.257 930.85C864.501 936.276 861.356 941.108 857.766 945.309C854.058 949.65 849.879 953.315 845.19 956.283C841.831 958.398 838.196 960.148 834.294 961.529C832.681 962.101 831.011 962.597 829.277 963.045L829.308 963.056Z" fill="#194F82"/>
<path d="M755.725 981.656L792.228 972.427C794.074 971.97 795.85 971.433 797.542 970.835C801.453 969.451 805.075 967.699 808.438 965.588L808.448 965.586C813.14 962.624 817.295 958.958 821.003 954.617C824.614 950.392 827.773 945.543 830.54 940.075C833.21 934.8 835.511 928.945 837.491 922.568C851.997 875.765 848.852 800.25 844.999 707.94C840.925 610.029 835.853 488.17 848.594 350.002C852.069 312.448 862.84 282.211 880.611 260.127C886.697 252.573 893.632 245.893 901.433 240.096C905.948 236.717 910.771 233.637 915.857 230.863C908.738 231.166 901.864 231.785 895.255 232.709C889.614 234.867 884.243 237.342 879.164 240.108C865.276 247.672 853.49 257.464 843.852 269.421C826.078 291.5 815.307 321.737 811.831 359.291C799.08 497.461 804.162 619.318 808.244 717.24C811.579 797.266 814.4 864.671 805.633 911.677C804.309 918.861 802.698 925.561 800.778 931.761C798.801 938.182 796.475 944.056 793.778 949.364C791.027 954.821 787.862 959.678 784.265 963.907C780.557 968.247 776.377 971.913 771.675 974.877C768.316 976.993 764.701 978.738 760.79 980.121C759.176 980.693 757.482 981.208 755.738 981.659L755.725 981.656Z" fill="#194F82"/>
<path d="M682.6 1000.13L718.685 991.016C720.525 990.547 722.301 990.011 724 989.424C727.911 988.04 731.533 986.287 734.889 984.166C739.581 981.204 743.75 977.542 747.468 973.198C751.079 968.972 754.231 964.113 757.002 958.65C759.699 953.343 762.008 947.46 763.992 941.05C765.929 934.819 767.548 928.073 768.876 920.855C770.172 913.864 771.228 906.427 772.036 898.572C776.766 853.536 774.328 794.597 771.467 726.526C767.393 628.615 762.308 506.753 775.062 368.588C778.513 331.034 789.309 300.797 807.079 278.713C823.74 258.008 846.873 243.811 876.219 236.4L839.635 245.649C810.302 253.063 787.155 267.257 770.491 287.956C752.721 310.041 741.949 340.278 738.474 377.832C725.723 516.002 730.805 637.859 734.879 735.77C737.231 792.249 739.322 842.442 737.284 883.618C736.854 892.07 736.263 900.152 735.462 907.819C734.626 915.726 733.576 923.194 732.279 930.204C730.931 937.427 729.308 944.168 727.371 950.398C725.39 956.814 723.085 962.683 720.375 967.988C717.601 973.445 714.445 978.299 710.828 982.513C707.117 986.849 702.937 990.514 698.239 993.465C694.89 995.558 691.299 997.303 687.412 998.668C685.864 999.209 684.252 999.703 682.59 1000.13L682.6 1000.13Z" fill="#194F82"/>
<path d="M1078.96 186.26C1114.32 181.294 1157.08 185.106 1206.29 197.653C1255.14 210.103 1311.94 231.519 1375.17 261.299C1480.83 311.065 1606.54 385.039 1748.84 481.156C1990.72 644.533 2199.79 817.861 2201.88 819.599L2238.47 810.356C2236.4 808.62 2027.3 635.291 1785.43 471.906C1643.13 375.801 1517.41 301.83 1411.76 252.05C1348.54 222.272 1291.72 200.853 1242.88 188.409C1187.38 174.258 1140.11 171.209 1102.36 179.337C1100.42 179.761 1098.52 180.201 1096.65 180.678C1090.48 182.241 1084.57 184.095 1078.96 186.26Z" fill="#379FFF"/>
<path d="M1005.57 204.822C1012.17 203.893 1019.05 203.28 1026.17 202.977C1033.29 202.66 1040.69 202.659 1048.31 202.96C1073.78 203.97 1102.01 208.404 1132.75 216.248C1181.6 228.683 1238.42 250.108 1301.64 279.885C1407.29 329.659 1533 403.634 1675.3 499.744C1917.18 663.127 2126.26 836.461 2128.35 838.191L2165.11 828.902C2163.04 827.167 1953.94 653.832 1712.06 490.455C1569.77 394.337 1444.05 320.365 1338.4 270.596C1275.18 240.819 1218.37 219.4 1169.52 206.95C1129.5 196.76 1093.77 192.323 1062.79 193.697C1055.73 194.007 1048.89 194.623 1042.32 195.536C1037.75 196.176 1033.32 196.956 1029 197.884C1027.06 198.302 1025.16 198.748 1023.29 199.225C1017.11 200.79 1011.19 202.655 1005.56 204.825L1005.57 204.822Z" fill="#379FFF"/>
<path d="M932.014 223.414C938.61 222.487 945.486 221.874 952.606 221.571C959.777 221.254 967.215 221.248 974.886 221.555C982.617 221.866 990.586 222.494 998.817 223.428C1007.05 224.367 1015.55 225.625 1024.27 227.196C1035.53 229.214 1047.18 231.765 1059.23 234.831C1108.08 247.28 1164.88 268.702 1228.11 298.477C1333.76 348.245 1459.47 422.22 1601.77 518.336C1843.65 681.713 2052.73 855.053 2054.82 856.783L2091.58 847.488C2089.51 845.753 1880.41 672.424 1638.53 509.047C1496.24 412.928 1370.52 338.956 1264.87 289.188C1201.65 259.399 1144.84 237.991 1095.99 225.542C1074.55 220.081 1054.34 216.268 1035.44 214.124C1027.25 213.185 1019.33 212.571 1011.66 212.264C1003.97 211.954 996.546 211.957 989.386 212.271C982.266 212.574 975.393 213.193 968.783 214.116C964.217 214.756 959.782 215.536 955.47 216.464C953.532 216.888 951.635 217.339 949.758 217.805C943.556 219.376 937.644 221.238 932.017 223.419L932.014 223.414Z" fill="#379FFF"/>
<path d="M839.642 245.641C841.522 245.161 843.433 244.712 845.36 244.291C849.652 243.369 854.04 242.588 858.578 241.962C865.174 241.035 872.047 240.417 879.161 240.102C886.332 239.786 893.759 239.783 901.43 240.09C909.145 240.392 917.12 241.012 925.341 241.948C933.627 242.894 942.17 244.152 950.945 245.724C959.818 247.321 968.931 249.242 978.294 251.485C980.806 252.09 983.331 252.717 985.879 253.364C992.823 255.138 999.941 257.086 1007.19 259.224C1051.04 272.073 1100.54 291.459 1154.77 317.007C1260.42 366.776 1386.13 440.75 1528.43 536.866C1770.31 700.243 1979.38 873.572 1981.48 875.307L2018.06 866.066C2015.99 864.331 1806.9 690.999 1565.01 527.617C1422.72 431.512 1297.01 357.537 1191.35 307.758C1128.12 277.985 1071.31 256.564 1022.46 244.114C1019.92 243.467 1017.39 242.84 1014.87 242.238C1005.56 240.007 996.488 238.095 987.662 236.498C978.88 234.915 970.334 233.651 962.052 232.712C953.837 231.767 945.852 231.149 938.13 230.836C930.46 230.529 923.042 230.53 915.861 230.849C908.741 231.152 901.868 231.771 895.258 232.694C890.693 233.334 886.257 234.114 881.945 235.042C880.028 235.46 878.114 235.903 876.233 236.383L839.649 245.632L839.642 245.641Z" fill="#379FFF"/>
</svg>
