<svg width="662" height="611" viewBox="0 0 662 611" fill="none" xmlns="http://www.w3.org/2000/svg">
<path d="M532.903 20.6219C534.6 81.6278 528.319 143.447 515.589 190.724C507.846 219.461 497.786 243.159 485.689 261.15C482.343 266.129 478.839 270.669 475.187 274.765C473.105 277.098 470.975 279.287 468.794 281.329C465.716 280.426 462.589 279.38 459.421 278.187C461.506 275.847 463.546 273.361 465.528 270.732C467.024 268.758 468.487 266.704 469.922 264.571C482.019 246.58 492.079 222.883 499.822 194.145C512.553 146.868 518.834 85.0522 517.136 24.0431L532.903 20.6219Z" fill="white"/>
<path d="M564.592 13.7432C566.29 74.749 560.008 136.568 547.278 183.845C539.54 212.582 529.48 236.28 517.383 254.271C510.206 264.94 502.307 273.603 493.752 280.195C491.486 281.942 489.175 283.543 486.819 284.997C483.907 284.68 480.946 284.216 477.944 283.605C480.215 281.857 482.435 279.959 484.607 277.921C490.627 272.279 496.277 265.536 501.538 257.71C513.635 239.72 523.695 216.022 531.434 187.284C544.164 140.008 550.445 78.1884 548.747 17.1825L564.592 13.7432Z" fill="white"/>
<path d="M596.286 6.86087C597.984 67.87 591.702 129.689 578.972 176.966C571.233 205.703 561.174 229.401 549.077 247.392C538.082 263.741 525.388 275.371 511.238 282.084C508.792 283.244 506.305 284.256 503.772 285.121C501.037 285.399 498.257 285.524 495.431 285.505C497.878 284.345 500.274 283.036 502.631 281.582C513.897 274.632 524.145 264.344 533.232 250.831C545.329 232.841 555.389 209.143 563.127 180.405C575.858 133.129 582.139 71.3094 580.441 10.3002L596.286 6.86087Z" fill="white"/>
<path d="M627.901 4.17599e-05C629.599 61.0092 623.318 122.825 610.588 170.102C602.849 198.839 592.789 222.537 580.692 240.528C567.323 260.416 551.435 273.317 533.474 278.882C531.544 279.479 529.59 279.993 527.612 280.423L511.846 283.845C513.828 283.414 515.782 282.9 517.708 282.303C535.669 276.738 551.551 263.834 564.925 243.949C577.022 225.958 587.082 202.26 594.821 173.523C607.551 126.246 613.832 64.4271 612.135 3.42121L627.901 4.17599e-05Z" fill="white"/>
<path d="M424.575 302.316C423.953 302.53 423.339 302.734 422.709 302.928C420.779 303.525 418.825 304.039 416.843 304.47C415.959 304.662 415.072 304.835 414.175 304.995C386.447 309.91 353.669 298.83 316.423 271.964C311.189 268.186 305.868 264.102 300.459 259.703C300.542 254.133 300.809 249.004 301.268 244.306C305.035 247.153 308.952 250.274 313.042 253.667C314.104 254.549 315.166 255.422 316.225 256.282C357.672 289.984 394.027 305.417 424.575 302.316Z" fill="#0054A1"/>
<path d="M456.221 295.443C455.59 295.661 454.958 295.866 454.32 296.065C452.39 296.665 450.436 297.175 448.458 297.606C447.574 297.798 446.683 297.974 445.786 298.134C444.004 298.448 442.201 298.7 440.38 298.882L440.376 298.883C437.658 299.157 434.896 299.287 432.089 299.266C402.527 299.064 367.932 282.647 328.887 250.228C324.772 246.813 320.826 243.675 317.043 240.813C312.209 237.153 307.632 233.938 303.286 231.153C304.173 227.16 305.268 223.621 306.588 220.52C310.527 222.481 314.683 224.859 319.063 227.672C326.835 232.649 335.339 238.986 344.731 246.788C380.046 276.11 411.723 292.341 439.326 295.325C442.223 295.636 445.076 295.804 447.884 295.827C450.709 295.846 453.49 295.721 456.221 295.443Z" fill="#0054A1"/>
<path d="M495.997 287.287L480.152 290.727C479.268 290.919 478.377 291.095 477.48 291.252C475.702 291.568 473.903 291.818 472.083 292C469.348 292.278 466.563 292.406 463.733 292.384C460.912 292.361 458.041 292.195 455.129 291.875C452.232 291.564 449.284 291.103 446.296 290.494C420.843 285.331 392.169 269.573 360.581 243.349C345.846 231.111 333.303 222.476 322.375 217.052C321.198 216.467 320.038 215.921 318.897 215.412C316.24 214.224 313.68 213.242 311.217 212.471C312.978 210.222 314.967 208.401 317.186 206.999C320.256 207.253 323.534 207.927 327.006 209.013C329.487 209.789 332.07 210.776 334.746 211.973C346.475 217.217 360.109 226.354 376.425 239.909C404.283 263.04 429.877 278.025 452.996 284.782C456.074 285.684 459.112 286.44 462.1 287.048C465.106 287.659 468.063 288.122 470.978 288.436C473.89 288.752 476.761 288.922 479.582 288.944C482.412 288.963 485.193 288.838 487.932 288.56C489.752 288.375 491.551 288.125 493.329 287.812C494.222 287.656 495.113 287.48 495.997 287.287Z" fill="#0054A1"/>
<path d="M527.608 280.427L511.842 283.848C510.958 284.04 510.067 284.216 509.174 284.373C507.392 284.686 505.593 284.939 503.772 285.121C501.038 285.399 498.257 285.524 495.431 285.505C492.61 285.482 489.735 285.313 486.819 284.997C483.907 284.68 480.946 284.216 477.944 283.605C474.938 282.995 471.891 282.237 468.794 281.329C465.716 280.426 462.589 279.38 459.421 278.187C438.83 270.425 416.402 256.503 392.275 236.47C375.954 222.914 362.319 213.777 350.591 208.533C340.852 204.179 332.407 202.609 325.403 203.851C325.092 203.904 324.782 203.967 324.477 204.033L340.244 200.612C340.549 200.543 340.859 200.483 341.169 200.427C348.174 199.185 356.618 200.754 366.357 205.109C378.086 210.356 391.72 219.493 408.041 233.045C428.446 249.987 447.639 262.561 465.528 270.732C468.792 272.222 472.009 273.566 475.187 274.765C478.369 275.965 481.511 277.016 484.607 277.921C487.699 278.826 490.75 279.584 493.752 280.195C496.758 280.805 499.715 281.266 502.631 281.582C505.546 281.895 508.413 282.065 511.238 282.084C514.068 282.103 516.848 281.975 519.583 281.694C521.39 281.512 523.176 281.264 524.94 280.952C525.837 280.792 526.724 280.619 527.608 280.427Z" fill="#0054A1"/>
<path d="M245.245 221.23C244.295 221.436 243.37 221.696 242.474 222.013C240.888 222.571 239.393 223.289 237.991 224.175C226.655 231.319 221.291 249.269 221.203 279.922C221.111 309.714 225.863 347.641 230.896 387.793C236.489 432.423 242.271 478.576 241.586 516.131C241.241 535.013 239.255 550.373 235.581 562.331C234.478 565.917 233.226 569.199 231.815 572.179C227.869 570.339 223.867 568.199 219.815 565.756C220.95 562.067 221.919 558.053 222.736 553.713C224.558 543.987 225.58 532.615 225.82 519.555C226.505 481.997 220.723 435.847 215.13 391.214C210.097 351.062 205.345 313.135 205.432 283.347C205.536 248.896 212.299 230.495 226.708 225.434C227.604 225.121 228.529 224.861 229.479 224.655L229.94 224.556L245.245 221.23Z" fill="#78BFFF"/>
<path d="M276.939 214.351C275.984 214.558 275.064 214.817 274.168 215.134C272.569 215.696 271.062 216.422 269.652 217.317C267.432 218.719 265.443 220.537 263.678 222.787C261.92 225.023 260.385 227.688 259.066 230.792C254.951 240.467 252.946 254.406 252.892 273.043C252.805 302.835 257.557 340.762 262.59 380.914C268.179 425.544 273.965 471.697 273.28 509.252C272.731 539.397 267.993 560.555 258.894 573.246C257.238 575.551 255.445 577.574 253.501 579.323C250.465 578.767 247.396 578.007 244.297 577.044C243.887 576.918 243.482 576.788 243.072 576.652C244.746 574.317 246.268 571.695 247.643 568.783C253.757 555.871 256.983 537.269 257.431 512.691C258.12 475.136 252.334 428.983 246.745 384.353C241.708 344.201 236.96 306.274 237.048 276.483C237.12 251.836 240.601 235.402 247.856 226.195C249.615 223.962 251.596 222.152 253.807 220.757C255.217 219.861 256.724 219.136 258.323 218.573C259.214 218.257 260.14 217.997 261.089 217.791L276.939 214.351Z" fill="#78BFFF"/>
<path d="M308.632 207.472C307.678 207.679 306.758 207.938 305.861 208.252C304.258 208.814 302.751 209.54 301.341 210.438C299.122 211.841 297.133 213.661 295.368 215.911C293.598 218.158 292.06 220.836 290.739 223.96C289.423 227.06 288.324 230.6 287.436 234.589C286.563 238.508 285.895 242.864 285.427 247.67C284.882 253.228 284.604 259.385 284.586 266.164C284.499 295.956 289.251 333.88 294.284 374.032C299.873 418.665 305.659 464.818 304.974 502.373C304.219 543.654 295.619 568.081 278.695 576.996C278.473 577.115 278.25 577.227 278.027 577.34C275.759 578.461 273.465 579.445 271.139 580.276C268.42 580.501 265.67 580.549 262.888 580.413C265.185 579.201 267.329 577.7 269.313 575.912C281.98 564.531 288.48 541.456 289.125 505.812C289.814 468.257 284.028 422.104 278.439 377.474C273.402 337.319 268.654 299.395 268.742 269.604C268.78 256.933 269.718 246.433 271.607 237.969C272.488 234.003 273.581 230.483 274.894 227.399C276.215 224.275 277.753 221.597 279.523 219.35C281.284 217.101 283.273 215.284 285.492 213.878C286.907 212.982 288.413 212.254 290.017 211.691C290.908 211.378 291.834 211.118 292.783 210.912L308.632 207.472Z" fill="#78BFFF"/>
<path d="M340.244 200.612C339.294 200.818 338.369 201.078 337.473 201.391C335.882 201.95 334.388 202.668 332.986 203.556C330.766 204.955 328.776 206.769 327.006 209.013C325.24 211.256 323.697 213.931 322.375 217.052C321.055 220.149 319.955 223.686 319.063 227.672C318.187 231.608 317.513 235.984 317.043 240.813C316.577 245.531 316.309 250.682 316.225 256.282C316.21 257.274 316.201 258.283 316.198 259.304C316.184 263.379 316.265 267.6 316.422 271.964C317.416 299.506 321.552 332.509 325.895 367.171C331.488 411.804 337.27 457.954 336.585 495.512C335.821 537.332 327.004 561.855 309.638 570.476C304.871 572.842 299.968 574.572 294.936 575.663L279.169 579.085C284.201 577.993 289.105 576.263 293.871 573.901C311.238 565.279 320.055 540.757 320.819 498.933C321.504 461.379 315.722 415.225 310.128 370.593C305.096 330.44 300.344 292.517 300.431 262.725C300.434 261.704 300.443 260.695 300.459 259.703C300.541 254.133 300.809 249.004 301.268 244.306C301.737 239.474 302.41 235.092 303.286 231.153C304.173 227.16 305.268 223.621 306.588 220.52C307.909 217.396 309.447 214.718 311.217 212.471C312.978 210.222 314.967 208.401 317.186 206.999C318.6 206.1 320.107 205.375 321.706 204.812C322.602 204.499 323.528 204.239 324.477 204.033L340.244 200.612Z" fill="#78BFFF"/>
<path d="M199.937 596.285L184.171 599.706C183.408 599.871 182.64 600.023 181.87 600.162C171.495 602.001 160.592 601.171 149.298 597.662C132.174 592.347 113.806 580.861 94.7034 563.533C79.2607 549.521 63.3515 531.715 47.4119 510.6C21.3159 476.035 3.63395 443.73 2.06034 440.82L17.8268 437.399C19.4 440.306 37.082 472.611 63.178 507.176C79.1176 528.291 95.0316 546.1 110.469 560.108C129.572 577.44 147.94 588.923 165.064 594.241C174.315 597.111 183.302 598.188 191.955 597.471C193.869 597.315 195.758 597.07 197.636 596.737C198.406 596.602 199.175 596.45 199.937 596.285Z" fill="white"/>
<path d="M231.631 589.406L215.786 592.846C215.019 593.01 214.251 593.162 213.48 593.298C211.594 593.634 209.687 593.878 207.76 594.034C205.054 594.258 202.313 594.305 199.541 594.175C193.471 593.894 187.256 592.771 180.909 590.802C163.789 585.483 145.421 574 126.314 556.669C110.876 542.661 94.9623 524.851 79.0227 503.736C52.9267 469.171 35.2492 436.866 33.6716 433.959L49.5207 430.52C51.094 433.426 68.7715 465.732 94.8719 500.297C110.811 521.412 126.721 539.221 142.159 553.23C161.266 570.561 179.634 582.044 196.754 587.363C199.871 588.328 202.955 589.093 206.008 589.652C209.158 590.23 212.272 590.589 215.345 590.732L215.35 590.732C218.136 590.867 220.89 590.819 223.609 590.594C225.532 590.438 227.443 590.195 229.33 589.858C230.1 589.723 230.864 589.571 231.631 589.406Z" fill="white"/>
<path d="M255.29 583.716C252.725 584.642 250.116 585.392 247.476 585.964C246.713 586.131 245.945 586.283 245.174 586.419C243.288 586.755 241.381 586.998 239.454 587.155C236.735 587.38 233.985 587.428 231.199 587.292C228.108 587.15 224.975 586.786 221.807 586.202C218.771 585.643 215.702 584.883 212.603 583.923C212.212 583.802 211.821 583.678 211.429 583.55C194.64 578.079 176.682 566.726 158.008 549.79C142.57 535.782 126.656 517.972 110.717 496.857C84.6207 462.292 66.9432 429.987 65.3655 427.08L81.2147 423.641C82.7879 426.547 100.465 458.853 126.566 493.418C142.505 514.533 158.415 532.342 173.853 546.35C188.417 559.558 202.547 569.37 216.027 575.644C219.812 577.407 223.543 578.889 227.223 580.091C227.633 580.227 228.038 580.357 228.448 580.483C231.547 581.447 234.616 582.206 237.656 582.763C240.82 583.346 243.952 583.711 247.044 583.852C249.825 583.989 252.575 583.941 255.29 583.716Z" fill="white"/>
<path d="M294.936 575.663L279.17 579.085C278.407 579.252 277.639 579.404 276.868 579.54C274.977 579.877 273.066 580.12 271.139 580.277C268.42 580.502 265.67 580.549 262.888 580.413C259.797 580.271 256.665 579.907 253.501 579.323C250.466 578.767 247.396 578.007 244.297 577.044C243.888 576.918 243.482 576.788 243.072 576.652C239.374 575.444 235.623 573.953 231.815 572.179C227.869 570.339 223.867 568.199 219.815 565.756C210.042 559.867 199.977 552.237 189.702 542.911C174.26 528.903 158.35 511.093 142.411 489.978C116.31 455.414 98.6327 423.108 97.0595 420.201L112.826 416.777C114.399 419.687 132.081 451.992 158.177 486.557C174.117 507.672 190.026 525.478 205.469 539.49C211.297 544.777 217.057 549.521 222.736 553.713C227.07 556.911 231.355 559.785 235.581 562.331C239.658 564.789 243.678 566.941 247.643 568.783C251.446 570.554 255.201 572.045 258.894 573.246C259.286 573.374 259.672 573.498 260.063 573.619C263.176 574.588 266.264 575.35 269.313 575.912C272.477 576.493 275.604 576.854 278.696 576.996C281.477 577.125 284.227 577.081 286.941 576.853C288.859 576.697 290.753 576.455 292.635 576.119C293.405 575.98 294.173 575.828 294.936 575.663Z" fill="white"/>
</svg>
