<svg width="1920" height="850" viewBox="0 0 1920 850" fill="none" xmlns="http://www.w3.org/2000/svg">
<path d="M-230.529 0.890779C-230.094 2.01425 -186.654 114.889 -99.3537 249.078C-48.126 327.807 7.93324 398.363 67.3088 458.767C141.239 534.03 220.422 593.574 302.62 635.766C308.277 638.673 313.874 641.483 319.381 644.19C330.575 649.707 341.439 654.815 351.942 659.518C358.845 654.81 365.777 649.743 372.709 644.335C367.202 641.624 361.635 638.823 355.978 635.916C350.592 633.151 345.235 630.322 339.893 627.406C263.427 585.865 189.751 529.25 120.667 458.917C61.2918 398.509 5.23229 327.958 -45.9954 249.224C-133.311 115.039 -176.75 2.1598 -177.171 1.03178L-230.529 0.88623V0.890779Z" fill="#379FFF"/>
<path d="M-337.786 0.591797C-337.351 1.71982 -293.911 114.599 -206.611 248.779C-155.383 327.518 -99.2939 398.064 -39.9484 458.473C33.9822 533.732 113.179 593.28 195.378 635.472C224.863 650.591 252.038 663.026 277.081 672.828C287.93 677.076 298.374 680.829 308.442 684.086C315.855 680.824 323.207 677.086 330.545 672.915C320.221 668.871 309.537 664.386 298.494 659.447C282.738 652.419 266.263 644.478 248.992 635.622C166.793 593.43 87.6107 533.886 13.6501 458.627C-45.6954 398.219 -101.77 327.668 -152.997 248.934C-240.282 114.74 -283.738 1.86082 -284.143 0.741896L-337.771 0.591797H-337.786Z" fill="#379FFF"/>
<path d="M-445.028 0.29541C-444.593 1.41888 -401.153 114.294 -313.853 248.483C-262.625 327.221 -206.536 397.768 -147.19 458.176C-73.2598 533.435 5.93746 592.979 88.1358 635.171C143.94 663.812 191.567 682.83 231.96 692.513C242.164 694.965 251.917 696.821 261.221 698.085C269.398 696.848 277.441 695.019 285.424 692.627C275.686 690.289 265.557 687.41 254.994 683.985C221.652 673.21 184.064 657.026 141.749 635.316C59.5509 593.125 -19.6313 533.576 -93.5619 458.317C-152.937 397.909 -208.997 327.358 -260.225 248.628C-347.54 114.444 -390.98 1.56898 -391.4 0.44551L-445.028 0.29541Z" fill="#379FFF"/>
<path d="M-552 0C-551.565 1.12347 -508.125 114.003 -420.825 248.187C-369.597 326.921 -313.523 397.472 -254.162 457.881C-180.217 533.14 -101.035 592.688 -18.8361 634.88C64.0675 677.413 128.89 698.722 178.782 699.782C179.923 699.805 181.063 699.818 182.188 699.823L235.547 699.968C234.421 699.968 233.281 699.95 232.141 699.927C182.248 698.863 117.426 677.558 34.5224 635.025C-47.676 592.834 -126.858 533.285 -200.804 458.026C-260.164 397.618 -316.239 327.067 -367.467 248.333C-454.767 114.148 -498.222 1.26902 -498.642 0.145551L-552 0Z" fill="#379FFF"/>
<path d="M504.035 700.715L557.003 700.86C559.689 700.865 562.345 700.819 564.941 700.706C653.262 696.849 724.386 624.109 822.85 523.438C891.319 453.442 976.533 366.32 1096.6 270.93C1114 257.121 1132.44 245.158 1151.81 235.129C1159.19 231.308 1166.69 227.769 1174.3 224.513C1164.17 221.233 1154.1 218.222 1144.11 215.479C1136.28 218.154 1128.57 221.124 1120.96 224.367C1093.27 236.175 1067.24 251.722 1043.26 270.78C923.175 366.175 837.975 453.292 769.492 523.288C677.69 617.178 609.611 686.769 529.229 698.854H529.214C523.392 699.723 517.54 700.301 511.583 700.556C509.137 700.665 506.601 700.719 504.05 700.719L504.035 700.715Z" fill="#194F82"/>
<path d="M396.853 700.415L450.032 700.565C452.718 700.569 455.374 700.515 457.969 700.401C463.971 700.137 469.854 699.56 475.721 698.682C483.868 697.454 491.881 695.634 499.819 693.26C570.118 672.205 633.395 607.471 715.878 523.138C784.347 453.133 869.547 366.021 989.633 270.621C1020.26 246.305 1054.19 227.706 1090.62 215.284C1093.02 214.47 1095.42 213.679 1097.84 212.91C1103.31 211.182 1108.85 209.58 1114.48 208.111C1104.77 205.942 1095.1 204.045 1085.55 202.412C1077.2 203.981 1069.01 205.823 1060.97 207.929C1055.31 209.403 1049.71 211.018 1044.21 212.755C1005.06 225.127 968.656 244.54 936.004 270.471C815.918 365.861 730.719 452.983 662.25 522.979C588.875 598.011 530.67 657.523 469.208 684.573C461.631 687.907 454.008 690.749 446.296 693.064C438.328 695.457 430.27 697.285 422.092 698.527C416.24 699.41 410.313 699.983 404.326 700.247C401.85 700.356 399.359 700.401 396.823 700.401L396.853 700.415Z" fill="#194F82"/>
<path d="M289.536 700.118L342.775 700.263C345.461 700.277 348.116 700.222 350.712 700.109C356.714 699.845 362.626 699.267 368.478 698.389H368.493C376.671 697.152 384.699 695.319 392.667 692.927C400.425 690.598 408.077 687.746 415.7 684.385C423.052 681.142 430.375 677.421 437.683 673.273C491.281 642.821 544.084 588.835 608.621 522.841C677.09 452.845 762.305 365.728 882.376 270.333C915.027 244.407 951.43 224.989 990.578 212.617C1003.98 208.387 1017.8 204.931 1032.05 202.256C1040.32 200.691 1048.75 199.395 1057.29 198.363C1048.03 197.275 1038.85 196.457 1029.77 195.902C1020.99 196.398 1012.32 197.166 1003.8 198.194C980.495 201.005 958.182 205.777 936.965 212.472C897.816 224.839 861.414 244.257 828.763 270.183C708.676 365.578 623.477 452.695 555.008 522.7C499.054 579.911 451.937 628.102 405.466 659.746C398.384 664.585 391.301 669.029 384.204 673.064C376.867 677.244 369.499 680.973 362.086 684.234C354.494 687.591 346.826 690.448 339.083 692.781C331.116 695.174 323.058 697.002 314.865 698.239C309.013 699.122 303.116 699.695 297.114 699.959C294.638 700.068 292.102 700.122 289.551 700.122L289.536 700.118Z" fill="#194F82"/>
<path d="M182.894 699.819L235.517 699.969C238.203 699.973 240.859 699.919 243.455 699.814C249.457 699.55 255.369 698.973 261.221 698.086C269.399 696.848 277.442 695.02 285.425 692.627C293.182 690.299 300.835 687.438 308.458 684.081C315.87 680.82 323.223 677.081 330.56 672.91C337.703 668.857 344.83 664.381 351.943 659.519C358.845 654.811 365.778 649.744 372.71 644.336C412.579 613.348 453.813 571.215 501.379 522.547C569.848 452.55 655.048 365.429 775.134 270.038C807.755 244.107 844.188 224.695 883.336 212.323C920.039 200.724 960.058 194.911 1002.85 195.034L949.494 194.888C906.715 194.77 866.681 200.579 829.978 212.173C790.829 224.545 754.427 243.962 721.776 269.888C601.689 365.283 516.49 452.4 448.021 522.396C408.527 562.773 373.43 598.656 339.879 627.407C332.976 633.306 326.149 638.915 319.366 644.191C312.359 649.631 305.412 654.721 298.494 659.442C291.352 664.304 284.224 668.775 277.082 672.828C269.744 677.003 262.407 680.733 254.979 683.99C247.357 687.342 239.704 690.199 231.946 692.518C223.978 694.906 215.921 696.735 207.743 697.963C201.921 698.832 196.054 699.409 190.097 699.664C187.726 699.764 185.31 699.819 182.879 699.819H182.894Z" fill="#194F82"/>
<path d="M1297.7 196.63C1346.29 199.582 1397.65 210.094 1450.64 227.965C1503.23 245.699 1559.17 271.23 1616.97 303.851C1713.56 358.365 1817.36 433.664 1925.57 527.659C2109.48 687.428 2244.31 848.239 2245.64 849.849L2299 849.999C2297.68 848.394 2162.83 687.578 1978.92 527.804C1870.72 433.819 1766.9 358.519 1670.33 303.997C1612.54 271.38 1556.59 245.845 1504 228.115C1444.24 207.96 1386.58 197.162 1332.59 196.012C1329.82 195.957 1327.07 195.921 1324.34 195.916C1315.34 195.893 1306.45 196.125 1297.7 196.63Z" fill="#379FFF"/>
<path d="M1190.66 196.344C1199.74 196.895 1208.92 197.718 1218.18 198.805C1227.45 199.883 1236.83 201.234 1246.27 202.839C1277.82 208.211 1310.29 216.508 1343.38 227.674C1395.99 245.399 1451.94 270.939 1509.73 303.556C1606.3 358.074 1710.11 433.374 1818.31 527.364C2002.23 687.138 2137.05 847.953 2138.4 849.559L2192.01 849.709C2190.69 848.103 2055.84 687.283 1871.92 527.514C1763.74 433.52 1659.91 358.22 1563.34 303.706C1505.56 271.089 1449.6 245.554 1397.01 227.82C1353.91 213.296 1311.93 203.626 1271.61 198.937C1262.41 197.863 1253.27 197.049 1244.26 196.494C1237.98 196.112 1231.77 195.853 1225.6 195.721C1222.83 195.662 1220.08 195.63 1217.35 195.626C1208.33 195.603 1199.42 195.839 1190.64 196.344H1190.66Z" fill="#379FFF"/>
<path d="M1083.39 196.048C1092.45 196.599 1101.63 197.422 1110.89 198.509C1120.22 199.596 1129.66 200.952 1139.16 202.571C1148.73 204.204 1158.37 206.105 1168.1 208.27C1177.84 210.44 1187.67 212.882 1197.56 215.589C1210.31 219.073 1223.17 223.007 1236.15 227.378C1288.75 245.113 1344.69 270.648 1402.49 303.265C1499.06 357.778 1602.86 433.078 1711.07 527.072C1894.99 686.842 2029.81 847.662 2031.16 849.268L2084.77 849.413C2083.45 847.808 1948.6 686.992 1764.68 527.222C1656.49 433.228 1552.67 357.928 1456.1 303.415C1398.31 270.789 1342.36 245.263 1289.77 227.528C1266.67 219.746 1243.91 213.355 1221.55 208.384C1211.87 206.223 1202.29 204.34 1192.79 202.721C1183.27 201.097 1173.85 199.742 1164.53 198.655C1155.27 197.568 1146.09 196.749 1137.01 196.194C1130.74 195.812 1124.53 195.553 1118.36 195.421C1115.59 195.366 1112.84 195.339 1110.11 195.325C1101.06 195.302 1092.16 195.539 1083.39 196.053V196.048Z" fill="#379FFF"/>
<path d="M949.509 194.884C952.255 194.888 955.016 194.92 957.777 194.975C963.914 195.107 970.066 195.357 976.293 195.744C985.356 196.294 994.54 197.113 1003.8 198.191C1013.13 199.278 1022.55 200.633 1032.05 202.252C1041.61 203.876 1051.26 205.773 1060.98 207.938C1070.78 210.121 1080.67 212.573 1090.62 215.288C1100.67 218.04 1110.78 221.065 1120.97 224.363C1123.7 225.25 1126.43 226.155 1129.18 227.078C1136.65 229.602 1144.22 232.281 1151.81 235.12C1197.75 252.222 1245.97 274.982 1295.53 302.965C1392.1 357.478 1495.91 432.778 1604.11 526.772C1788.03 686.542 1922.85 847.353 1924.2 848.963L1977.54 849.113C1976.22 847.507 1841.39 686.692 1657.47 526.918C1549.27 432.933 1445.46 357.633 1348.89 303.11C1291.07 270.493 1235.13 244.958 1182.54 227.224C1179.79 226.3 1177.06 225.395 1174.32 224.508C1164.19 221.229 1154.12 218.218 1144.13 215.475C1134.18 212.75 1124.29 210.294 1114.49 208.115C1104.78 205.946 1095.12 204.049 1085.56 202.416C1076.06 200.797 1066.65 199.442 1057.31 198.354C1048.05 197.267 1038.86 196.449 1029.79 195.894C1023.51 195.512 1017.3 195.252 1011.14 195.12C1008.39 195.066 1005.63 195.029 1002.88 195.025L949.524 194.879L949.509 194.884Z" fill="#379FFF"/>
</svg>
