<svg width="1775" height="1105" viewBox="0 0 1775 1105" fill="none" xmlns="http://www.w3.org/2000/svg">
<path d="M2163.48 1038.55C1979.04 997.562 1565.41 904.138 1156.54 801.56C836.214 721.188 581.478 651.019 399.495 593.021C315.968 566.398 247.842 542.371 195.31 521.006C181.917 515.564 169.533 510.296 158.182 505.201C146.278 499.872 135.507 494.723 125.842 489.771C115.698 484.585 106.808 479.619 99.1234 474.864C91.037 469.854 84.3273 465.087 78.9701 460.555C73.2635 455.745 69.1065 451.2 66.4977 446.934C64.0149 442.931 62.8839 439.168 63.1301 435.642C63.1749 435.15 63.2192 434.664 63.2888 434.174L67.5654 409.44C67.5206 409.931 67.451 410.421 67.4067 410.907C67.1873 414.413 68.2718 418.139 70.7325 422.112L70.732 422.118C73.3398 426.394 77.472 430.937 83.1786 435.747C88.511 440.277 95.2202 445.05 103.307 450.054C110.967 454.807 119.856 459.778 129.976 464.951C139.616 469.907 150.388 475.049 162.291 480.39C173.69 485.506 186.122 490.8 199.587 496.266C212.473 501.512 226.318 506.918 241.098 512.482C286.5 529.582 340.732 548.193 403.772 568.281C585.754 626.29 840.49 696.459 1160.84 776.822C1568.23 879.036 1980.36 972.151 2165.77 1013.38L2163.48 1038.55Z" fill="#78BFFF"/>
<path d="M2158.86 1089.16C1976.41 1048.64 1559.74 954.606 1147.94 851.282C827.587 770.912 572.875 700.746 390.869 642.74C263.648 602.199 172.199 567.668 117.072 539.421C107 534.264 98.1586 529.32 90.5212 524.591C82.4596 519.583 75.7254 514.814 70.3439 510.274C64.6373 505.464 60.4796 500.924 57.896 496.656C55.4125 492.658 54.2817 488.895 54.5034 485.367C54.5482 484.875 54.617 484.391 54.6866 483.901C55.3807 479.848 57.8961 475.815 62.1842 471.794C64.7931 476.059 68.9508 480.599 74.6569 485.414C80.0146 489.941 86.7483 494.716 94.8352 499.72C102.495 504.474 111.409 509.452 121.528 514.636C131.145 519.562 141.87 524.678 153.701 529.984C209.664 555.093 290.27 584.441 395.182 617.875C577.188 675.886 831.9 746.053 1152.25 826.428C1562.59 929.373 1977.72 1023.1 2161.17 1063.86L2158.86 1089.16Z" fill="#78BFFF"/>
<path d="M2154.25 1139.78C1973.96 1099.75 1554.22 1005.1 1139.33 901.014C818.985 820.639 564.249 750.47 382.267 692.467C207.227 636.678 99.8675 592.269 61.6723 559.944L61.6728 559.939C56.0391 555.153 51.9039 550.642 49.2935 546.394C46.811 542.385 45.6802 538.622 45.9264 535.096C45.9459 534.607 45.9907 534.115 46.0851 533.628L50.2816 509.499C50.2594 509.742 50.2373 509.985 50.2394 510.236C49.9935 513.757 51.0997 517.518 53.5837 521.51L53.5832 521.515C56.1916 525.786 60.3728 530.34 66.0544 535.152C71.4129 539.668 78.0749 544.409 86.089 549.389C135.574 580.08 236.032 619.632 386.555 667.605C568.562 725.616 823.273 795.783 1143.62 876.152C1556.97 979.845 1975.16 1074.19 2156.56 1114.47L2154.25 1139.78Z" fill="#78BFFF"/>
<path d="M2149.65 1190.26C1971.66 1150.76 1548.7 1055.47 1130.75 950.608C810.395 870.239 555.684 800.072 373.677 742.061C148.341 670.253 35.1901 617.301 37.3373 584.684C37.3563 584.201 37.4262 583.706 37.5201 583.225C38.2117 579.199 40.7005 575.186 44.9374 571.177C65.1123 604.167 176.869 653.232 377.979 717.323C559.986 775.334 814.697 845.501 1135.02 925.873C1551.44 1030.35 1972.8 1125.32 2151.95 1165.08L2149.65 1190.26Z" fill="#78BFFF"/>
<path d="M70.7323 422.112C68.2718 418.138 67.1871 414.413 67.4068 410.907C67.4511 410.421 67.5207 409.931 67.5655 409.439C73.1621 377.343 191.762 346.077 420.342 316.48C607.771 292.209 868.605 269.127 1195.64 247.875C1627.53 219.809 2063.15 202.361 2240.25 195.838L2238 220.502C2062.24 226.967 1624.91 244.444 1191.36 272.615C864.328 293.861 603.494 316.949 416.066 341.215C216.201 367.089 100.398 394.247 70.7323 422.112Z" fill="#0054A2"/>
<path d="M103.307 450.053C95.2203 445.049 88.5112 440.277 83.1788 435.746C128.873 411.81 238.858 388.466 411.752 366.08C599.181 341.809 860.015 318.721 1187.08 297.471C1622.28 269.195 2061.31 251.695 2235.74 245.292L2233.49 270.077C2060.48 276.415 1619.7 293.945 1182.76 322.336C855.727 343.588 594.868 366.668 407.439 390.939C260.074 410.025 158.407 429.804 103.307 450.053Z" fill="#0054A2"/>
<path d="M162.291 480.391C150.388 475.051 139.616 469.908 129.976 464.952C188.781 448.171 280.026 431.744 403.15 415.809C590.554 391.535 851.438 368.452 1178.45 347.203C1617.12 318.697 2059.67 301.145 2231.23 294.869L2228.97 319.66C2058.9 325.864 1614.57 343.444 1174.14 372.057C847.125 393.311 586.266 416.397 398.837 440.668C298.891 453.618 219.924 466.874 162.291 480.391Z" fill="#0054A2"/>
<path d="M241.097 512.483C226.317 506.919 212.472 501.513 199.586 496.267C251.792 485.848 316.797 475.593 394.548 465.529C581.953 441.256 842.811 418.176 1169.87 396.926C1612.07 368.189 2058.19 350.584 2226.71 344.438L2224.46 369.107C2057.5 375.177 1609.55 392.811 1165.57 421.664C838.534 442.91 577.675 465.996 390.246 490.267C333.803 497.57 284.095 504.98 241.097 512.483Z" fill="#0054A2"/>
</svg>
