<svg width="985" height="722" viewBox="0 0 985 722" fill="none" xmlns="http://www.w3.org/2000/svg">
<path d="M792.914 24.3598C795.44 96.4233 786.094 169.448 767.152 225.294C755.631 259.24 740.663 287.233 722.664 308.485C717.685 314.367 712.473 319.73 707.038 324.568C703.941 327.323 700.771 329.909 697.526 332.321C692.946 331.255 688.293 330.019 683.579 328.61C686.682 325.846 689.718 322.909 692.667 319.804C694.892 317.472 697.069 315.046 699.204 312.526C717.204 291.275 732.172 263.281 743.693 229.335C762.635 173.489 771.981 100.468 769.455 28.401L792.914 24.3598Z" fill="white"/>
<path d="M840.065 16.2342C842.591 88.2977 833.245 161.322 814.304 217.168C802.789 251.114 787.821 279.107 769.822 300.359C759.144 312.962 747.39 323.195 734.662 330.982C731.29 333.046 727.851 334.937 724.345 336.654C720.013 336.28 715.607 335.732 711.141 335.011C714.519 332.946 717.823 330.704 721.055 328.296C730.011 321.631 738.418 313.666 746.246 304.422C764.245 283.17 779.213 255.177 790.728 221.231C809.67 165.385 819.016 92.3605 816.49 20.297L840.065 16.2342Z" fill="white"/>
<path d="M887.223 8.10444C889.749 80.1718 880.403 153.196 861.462 209.042C849.947 242.988 834.979 270.982 816.979 292.233C800.621 311.545 781.733 325.284 760.679 333.214C757.039 334.583 753.338 335.779 749.571 336.801C745.501 337.129 741.364 337.277 737.16 337.254C740.8 335.885 744.366 334.338 747.872 332.621C764.635 324.411 779.883 312.257 793.404 296.296C811.403 275.044 826.371 247.051 837.886 213.105C856.827 157.259 866.173 84.2346 863.647 12.1672L887.223 8.10444Z" fill="white"/>
<path d="M934.264 5.13344e-05C936.791 72.0674 927.444 145.088 908.503 200.934C896.988 234.88 882.02 262.873 864.02 284.125C844.128 307.617 820.489 322.857 793.765 329.431C790.893 330.136 787.985 330.743 785.043 331.252L761.583 335.293C764.533 334.784 767.44 334.177 770.305 333.472C797.03 326.898 820.662 311.655 840.561 288.166C858.56 266.915 873.529 238.921 885.043 204.975C903.985 149.129 913.331 76.1049 910.805 4.04132L934.264 5.13344e-05Z" fill="white"/>
<path d="M631.732 357.113C630.806 357.365 629.892 357.606 628.956 357.836C626.084 358.541 623.177 359.148 620.227 359.657C618.912 359.884 617.592 360.088 616.257 360.277C575 366.083 526.23 352.994 470.81 321.259C463.023 316.797 455.106 311.972 447.057 306.776C447.18 300.196 447.578 294.138 448.261 288.588C453.866 291.951 459.695 295.638 465.78 299.646C467.361 300.688 468.94 301.719 470.517 302.734C532.185 342.545 586.28 360.776 631.732 357.113Z" fill="#0054A1"/>
<path d="M678.818 348.994C677.879 349.251 676.939 349.493 675.99 349.728C673.119 350.437 670.211 351.04 667.268 351.549C665.952 351.776 664.627 351.984 663.292 352.173C660.64 352.543 657.958 352.842 655.249 353.057L655.242 353.057C651.199 353.381 647.089 353.534 642.911 353.51C598.926 353.271 547.452 333.878 489.356 295.583C483.233 291.55 477.361 287.843 471.734 284.462C464.541 280.138 457.73 276.341 451.264 273.05C452.584 268.335 454.213 264.154 456.177 260.491C462.038 262.808 468.222 265.616 474.739 268.939C486.302 274.818 498.956 282.304 512.931 291.52C565.476 326.157 612.609 345.33 653.68 348.854C657.991 349.222 662.235 349.42 666.414 349.447C670.618 349.47 674.755 349.323 678.818 348.994Z" fill="#0054A1"/>
<path d="M738.002 339.36L714.426 343.423C713.11 343.65 711.785 343.858 710.449 344.043C707.805 344.417 705.128 344.711 702.419 344.926C698.35 345.255 694.207 345.406 689.995 345.38C685.797 345.354 681.526 345.157 677.194 344.779C672.882 344.412 668.497 343.867 664.051 343.148C626.179 337.048 583.514 318.435 536.514 287.457C514.589 273.001 495.927 262.801 479.667 256.394C477.915 255.703 476.19 255.058 474.492 254.457C470.538 253.054 466.729 251.893 463.065 250.983C465.685 248.326 468.644 246.175 471.946 244.519C476.513 244.819 481.391 245.616 486.557 246.898C490.248 247.814 494.092 248.98 498.074 250.394C515.525 256.589 535.811 267.382 560.089 283.394C601.539 310.717 639.621 328.419 674.02 336.4C678.6 337.466 683.12 338.358 687.565 339.077C692.038 339.798 696.438 340.346 700.776 340.716C705.108 341.09 709.38 341.291 713.578 341.317C717.788 341.34 721.926 341.192 726.001 340.863C728.71 340.644 731.387 340.35 734.031 339.98C735.36 339.795 736.686 339.587 738.002 339.36Z" fill="#0054A1"/>
<path d="M785.037 331.256L761.577 335.297C760.262 335.524 758.936 335.732 757.607 335.917C754.956 336.287 752.28 336.586 749.571 336.801C745.501 337.129 741.364 337.277 737.16 337.254C732.962 337.227 728.684 337.028 724.345 336.654C720.013 336.28 715.607 335.732 711.141 335.011C706.668 334.289 702.134 333.394 697.526 332.322C692.946 331.255 688.293 330.019 683.579 328.61C652.942 319.441 619.57 302.996 583.672 279.331C559.387 263.319 539.101 252.526 521.65 246.331C507.159 241.187 494.594 239.333 484.173 240.8C483.71 240.863 483.249 240.937 482.795 241.015L506.254 236.974C506.707 236.892 507.169 236.822 507.631 236.755C518.053 235.288 530.618 237.142 545.108 242.286C562.56 248.485 582.846 259.278 607.13 275.286C637.492 295.299 666.048 310.151 692.667 319.804C697.522 321.564 702.31 323.151 707.038 324.568C711.773 325.985 716.447 327.227 721.055 328.296C725.655 329.365 730.195 330.26 734.662 330.981C739.135 331.703 743.533 332.247 747.872 332.621C752.21 332.991 756.475 333.191 760.679 333.214C764.89 333.236 769.027 333.085 773.095 332.752C775.784 332.538 778.441 332.245 781.066 331.876C782.401 331.687 783.721 331.483 785.037 331.256Z" fill="#0054A1"/>
<path d="M364.903 261.329C363.49 261.573 362.114 261.88 360.781 262.254C358.421 262.913 356.197 263.762 354.11 264.807C337.243 273.246 329.262 294.451 329.131 330.66C328.995 365.852 336.066 410.653 343.554 458.083C351.876 510.802 360.479 565.321 359.46 609.683C358.946 631.987 355.991 650.131 350.525 664.257C348.883 668.493 347.02 672.37 344.921 675.89C339.049 673.716 333.096 671.188 327.066 668.302C328.755 663.945 330.197 659.203 331.412 654.077C334.123 642.588 335.644 629.154 336.001 613.728C337.02 569.362 328.417 514.847 320.095 462.124C312.606 414.694 305.536 369.893 305.666 334.705C305.821 294.01 315.883 272.273 337.322 266.296C338.655 265.925 340.032 265.618 341.445 265.374L342.132 265.258L364.903 261.329Z" fill="#78BFFF"/>
<path d="M412.061 253.204C410.641 253.447 409.272 253.754 407.939 254.128C405.56 254.792 403.317 255.65 401.219 256.707C397.917 258.364 394.957 260.511 392.33 263.168C389.715 265.809 387.431 268.957 385.468 272.624C379.346 284.053 376.362 300.518 376.283 322.534C376.153 357.726 383.224 402.527 390.712 449.957C399.027 502.676 407.637 557.195 406.618 601.557C405.801 637.166 398.751 662.159 385.212 677.151C382.748 679.873 380.08 682.263 377.188 684.329C372.671 683.672 368.104 682.774 363.493 681.636C362.884 681.487 362.281 681.334 361.67 681.173C364.161 678.415 366.426 675.318 368.471 671.878C377.57 656.626 382.369 634.652 383.035 605.62C384.061 561.258 375.452 506.739 367.136 454.02C359.641 406.59 352.577 361.788 352.707 326.597C352.815 297.482 357.995 278.07 368.789 267.194C371.406 264.557 374.353 262.418 377.643 260.77C379.741 259.712 381.984 258.855 384.363 258.191C385.689 257.817 387.066 257.51 388.479 257.267L412.061 253.204Z" fill="#78BFFF"/>
<path d="M459.219 245.078C457.799 245.321 456.429 245.628 455.096 245.999C452.71 246.663 450.468 247.52 448.37 248.582C445.068 250.238 442.109 252.389 439.482 255.046C436.848 257.7 434.56 260.864 432.594 264.554C430.637 268.216 429.001 272.398 427.681 277.11C426.381 281.739 425.388 286.885 424.691 292.562C423.881 299.128 423.467 306.401 423.44 314.408C423.311 349.6 430.381 394.397 437.869 441.827C446.185 494.55 454.795 549.069 453.776 593.431C452.652 642.194 439.856 671.049 414.675 681.58C414.344 681.72 414.012 681.853 413.68 681.986C410.306 683.311 406.893 684.472 403.432 685.455C399.386 685.721 395.294 685.777 391.155 685.616C394.573 684.185 397.764 682.411 400.715 680.3C419.562 666.856 429.234 639.599 430.193 597.494C431.219 553.132 422.609 498.613 414.294 445.894C406.799 398.46 399.735 353.663 399.865 318.471C399.921 303.503 401.317 291.101 404.128 281.102C405.439 276.417 407.065 272.26 409.019 268.617C410.985 264.927 413.273 261.763 415.907 259.109C418.527 256.452 421.486 254.305 424.788 252.645C426.893 251.587 429.135 250.726 431.52 250.061C432.847 249.691 434.224 249.384 435.637 249.141L459.219 245.078Z" fill="#78BFFF"/>
<path d="M506.254 236.974C504.841 237.217 503.464 237.524 502.131 237.895C499.764 238.554 497.54 239.403 495.454 240.452C492.151 242.104 489.191 244.248 486.557 246.898C483.929 249.547 481.634 252.708 479.667 256.394C477.703 260.053 476.066 264.23 474.739 268.939C473.435 273.588 472.433 278.757 471.734 284.462C471.04 290.035 470.64 296.12 470.516 302.734C470.493 303.907 470.48 305.098 470.475 306.304C470.456 311.118 470.576 316.105 470.81 321.259C472.288 353.793 478.443 392.778 484.904 433.723C493.227 486.446 501.829 540.961 500.81 585.327C499.673 634.727 486.555 663.694 460.714 673.878C453.623 676.673 446.326 678.716 438.84 680.006L415.38 684.047C422.867 682.757 430.163 680.715 437.256 677.923C463.096 667.739 476.215 638.772 477.351 589.368C478.371 545.006 469.767 490.487 461.445 437.765C453.956 390.334 446.886 345.537 447.016 310.345C447.021 309.139 447.034 307.948 447.057 306.776C447.18 300.196 447.578 294.138 448.261 288.588C448.96 282.88 449.961 277.703 451.264 273.05C452.584 268.335 454.213 264.154 456.177 260.491C458.143 256.801 460.431 253.637 463.065 250.983C465.685 248.326 468.644 246.175 471.946 244.519C474.05 243.457 476.292 242.6 478.672 241.936C480.005 241.565 481.382 241.258 482.795 241.015L506.254 236.974Z" fill="#78BFFF"/>
<path d="M297.49 704.366L274.031 708.407C272.896 708.601 271.752 708.78 270.606 708.944C255.169 711.117 238.947 710.136 222.143 705.992C196.664 699.713 169.333 686.145 140.911 665.676C117.933 649.125 94.2617 628.092 70.5449 603.149C31.7162 562.319 5.40702 524.159 3.06561 520.721L26.5248 516.68C28.8656 520.113 55.1748 558.274 94.0035 599.104C117.72 624.046 141.399 645.084 164.369 661.631C192.793 682.104 220.123 695.668 245.602 701.951C259.366 705.341 272.738 706.614 285.613 705.766C288.46 705.582 291.271 705.292 294.065 704.899C295.212 704.739 296.355 704.56 297.49 704.366Z" fill="white"/>
<path d="M344.648 696.24L321.072 700.302C319.931 700.497 318.787 700.676 317.641 700.837C314.834 701.234 311.996 701.521 309.129 701.706C305.104 701.971 301.025 702.027 296.9 701.873C287.868 701.541 278.621 700.214 269.177 697.888C243.705 691.605 216.375 678.041 187.945 657.568C164.975 641.021 141.296 619.984 117.579 595.041C78.7505 554.211 52.4478 516.05 50.1004 512.617L73.6827 508.554C76.0235 511.988 102.326 550.149 141.161 590.978C164.878 615.921 188.55 636.958 211.52 653.506C239.95 673.978 267.28 687.542 292.753 693.825C297.391 694.966 301.98 695.87 306.523 696.53C311.209 697.213 315.842 697.637 320.415 697.805L320.422 697.805C324.568 697.966 328.666 697.909 332.712 697.643C335.572 697.459 338.416 697.171 341.223 696.773C342.369 696.613 343.506 696.434 344.648 696.24Z" fill="white"/>
<path d="M379.85 689.518C376.033 690.612 372.151 691.497 368.223 692.173C367.089 692.371 365.945 692.55 364.799 692.711C361.992 693.108 359.154 693.395 356.287 693.58C352.242 693.846 348.15 693.902 344.004 693.742C339.405 693.574 334.744 693.144 330.03 692.455C325.513 691.794 320.946 690.896 316.335 689.762C315.754 689.619 315.172 689.473 314.589 689.322C289.607 682.859 262.887 669.448 235.103 649.442C212.133 632.895 188.454 611.858 164.737 586.915C125.908 546.085 99.6058 507.924 97.2584 504.491L120.841 500.428C123.181 503.862 149.484 542.023 188.319 582.852C212.036 607.795 235.708 628.832 258.678 645.38C280.349 660.982 301.373 672.572 321.43 679.983C327.061 682.065 332.614 683.816 338.088 685.236C338.699 685.397 339.302 685.55 339.911 685.7C344.522 686.837 349.089 687.735 353.612 688.392C358.32 689.081 362.98 689.512 367.58 689.679C371.719 689.84 375.811 689.784 379.85 689.518Z" fill="white"/>
<path d="M438.84 680.006L415.381 684.047C414.247 684.245 413.103 684.425 411.957 684.585C409.143 684.983 406.299 685.27 403.432 685.455C399.386 685.721 395.295 685.777 391.156 685.616C386.556 685.449 381.896 685.019 377.188 684.329C372.672 683.672 368.105 682.774 363.493 681.637C362.884 681.487 362.281 681.334 361.67 681.173C356.168 679.747 350.588 677.986 344.921 675.89C339.049 673.716 333.096 671.188 327.066 668.302C312.525 661.346 297.55 652.333 282.261 641.317C259.284 624.77 235.612 603.732 211.895 578.79C173.06 537.96 146.757 499.799 144.416 496.365L167.875 492.32C170.216 495.758 196.526 533.918 235.354 574.748C259.071 599.691 282.743 620.725 305.72 637.275C314.392 643.521 322.963 649.125 331.413 654.077C337.861 657.854 344.237 661.25 350.525 664.257C356.59 667.16 362.573 669.702 368.471 671.878C374.131 673.971 379.718 675.732 385.212 677.151C385.795 677.301 386.37 677.448 386.952 677.591C391.584 678.736 396.178 679.636 400.716 680.3C405.423 680.986 410.076 681.412 414.675 681.58C418.813 681.733 422.906 681.68 426.944 681.411C429.798 681.227 432.615 680.941 435.416 680.544C436.562 680.38 437.705 680.2 438.84 680.006Z" fill="white"/>
</svg>
