<svg width="60" height="60" viewBox="0 0 60 60" fill="none" xmlns="http://www.w3.org/2000/svg">
<path d="M10.1203 30C10.9149 30.6536 11.5552 31.4747 11.9953 32.4047C13.1203 34.725 13.1203 37.5609 13.1203 40.3125C13.1203 46.0102 13.3547 48.75 18.7453 48.75C19.2426 48.75 19.7195 48.9475 20.0711 49.2992C20.4228 49.6508 20.6203 50.1277 20.6203 50.625C20.6203 51.1223 20.4228 51.5992 20.0711 51.9508C19.7195 52.3025 19.2426 52.5 18.7453 52.5C14.6484 52.5 11.8734 51.0609 10.4953 48.2203C9.37031 45.9 9.37031 43.0641 9.37031 40.3125C9.37031 34.6148 9.13594 31.875 3.74531 31.875C3.24803 31.875 2.77112 31.6775 2.41949 31.3258C2.06786 30.9742 1.87031 30.4973 1.87031 30C1.87031 29.5027 2.06786 29.0258 2.41949 28.6742C2.77112 28.3225 3.24803 28.125 3.74531 28.125C9.13594 28.125 9.37031 25.3852 9.37031 19.6875C9.37031 16.9406 9.37031 14.1 10.4953 11.7797C11.8781 8.93906 14.6531 7.5 18.75 7.5C19.2473 7.5 19.7242 7.69754 20.0758 8.04918C20.4275 8.40081 20.625 8.87772 20.625 9.375C20.625 9.87228 20.4275 10.3492 20.0758 10.7008C19.7242 11.0525 19.2473 11.25 18.75 11.25C13.3594 11.25 13.125 13.9898 13.125 19.6875C13.125 22.4344 13.125 25.275 12 27.5953C11.5585 28.5257 10.9166 29.3469 10.1203 30ZM56.25 28.125C50.8594 28.125 50.625 25.3852 50.625 19.6875C50.625 16.9406 50.625 14.1 49.5 11.7797C48.1219 8.93906 45.3469 7.5 41.25 7.5C40.7527 7.5 40.2758 7.69754 39.9242 8.04918C39.5725 8.40081 39.375 8.87772 39.375 9.375C39.375 9.87228 39.5725 10.3492 39.9242 10.7008C40.2758 11.0525 40.7527 11.25 41.25 11.25C46.6406 11.25 46.875 13.9898 46.875 19.6875C46.875 22.4344 46.875 25.275 48 27.5953C48.4401 28.5253 49.0804 29.3464 49.875 30C49.0804 30.6536 48.4401 31.4747 48 32.4047C46.875 34.725 46.875 37.5609 46.875 40.3125C46.875 46.0102 46.6406 48.75 41.25 48.75C40.7527 48.75 40.2758 48.9475 39.9242 49.2992C39.5725 49.6508 39.375 50.1277 39.375 50.625C39.375 51.1223 39.5725 51.5992 39.9242 51.9508C40.2758 52.3025 40.7527 52.5 41.25 52.5C45.3469 52.5 48.1219 51.0609 49.5 48.2203C50.625 45.9 50.625 43.0641 50.625 40.3125C50.625 34.6148 50.8594 31.875 56.25 31.875C56.7473 31.875 57.2242 31.6775 57.5758 31.3258C57.9275 30.9742 58.125 30.4973 58.125 30C58.125 29.5027 57.9275 29.0258 57.5758 28.6742C57.2242 28.3225 56.7473 28.125 56.25 28.125Z" fill="white"/>
</svg>
