<svg width="60" height="60" viewBox="0 0 60 60" fill="none" xmlns="http://www.w3.org/2000/svg">
<path d="M13.6734 23.8266L6.17345 16.3266C5.99912 16.1525 5.86082 15.9457 5.76646 15.7181C5.6721 15.4905 5.62354 15.2465 5.62354 15.0001C5.62354 14.7537 5.6721 14.5097 5.76646 14.2821C5.86082 14.0544 5.99912 13.8476 6.17345 13.6735L13.6734 6.1735C14.0253 5.82168 14.5025 5.62402 15 5.62402C15.4976 5.62402 15.9747 5.82168 16.3266 6.1735C16.6784 6.52533 16.8761 7.00251 16.8761 7.50007C16.8761 7.99762 16.6784 8.4748 16.3266 8.82663L10.1508 15.0001L16.3266 21.1735C16.6784 21.5253 16.8761 22.0025 16.8761 22.5001C16.8761 22.9976 16.6784 23.4748 16.3266 23.8266C15.9747 24.1785 15.4976 24.3761 15 24.3761C14.5025 24.3761 14.0253 24.1785 13.6734 23.8266ZM23.0484 23.8266C23.2226 24.001 23.4294 24.1393 23.657 24.2336C23.8846 24.328 24.1286 24.3765 24.375 24.3765C24.6214 24.3765 24.8654 24.328 25.093 24.2336C25.3206 24.1393 25.5274 24.001 25.7016 23.8266L33.2016 16.3266C33.3759 16.1525 33.5142 15.9457 33.6086 15.7181C33.7029 15.4905 33.7515 15.2465 33.7515 15.0001C33.7515 14.7537 33.7029 14.5097 33.6086 14.2821C33.5142 14.0544 33.3759 13.8476 33.2016 13.6735L25.7016 6.1735C25.3497 5.82168 24.8726 5.62402 24.375 5.62402C23.8775 5.62402 23.4003 5.82168 23.0484 6.1735C22.6966 6.52533 22.499 7.00251 22.499 7.50007C22.499 7.99762 22.6966 8.4748 23.0484 8.82663L29.2242 15.0001L23.0484 21.1735C22.8741 21.3476 22.7358 21.5544 22.6415 21.7821C22.5471 22.0097 22.4985 22.2537 22.4985 22.5001C22.4985 22.7465 22.5471 22.9905 22.6415 23.2181C22.7358 23.4457 22.8741 23.6525 23.0484 23.8266ZM46.875 9.37507H41.25C40.7527 9.37507 40.2758 9.57261 39.9242 9.92424C39.5726 10.2759 39.375 10.7528 39.375 11.2501C39.375 11.7473 39.5726 12.2243 39.9242 12.5759C40.2758 12.9275 40.7527 13.1251 41.25 13.1251H46.875V46.8751H13.125V31.8751C13.125 31.3778 12.9275 30.9009 12.5758 30.5492C12.2242 30.1976 11.7473 30.0001 11.25 30.0001C10.7527 30.0001 10.2758 30.1976 9.92419 30.5492C9.57255 30.9009 9.37501 31.3778 9.37501 31.8751V46.8751C9.37501 47.8696 9.7701 48.8234 10.4734 49.5267C11.1766 50.23 12.1304 50.6251 13.125 50.6251H46.875C47.8696 50.6251 48.8234 50.23 49.5267 49.5267C50.2299 48.8234 50.625 47.8696 50.625 46.8751V13.1251C50.625 12.1305 50.2299 11.1767 49.5267 10.4734C48.8234 9.77015 47.8696 9.37507 46.875 9.37507Z" fill="white"/>
</svg>
