<svg width="60" height="60" viewBox="0 0 60 60" fill="none" xmlns="http://www.w3.org/2000/svg">
<path d="M16.2 22.0663L6.67969 29.9999L16.2 37.9335C16.3946 38.0893 16.5562 38.2824 16.6754 38.5014C16.7945 38.7205 16.8687 38.961 16.8938 39.2091C16.9188 39.4572 16.8941 39.7077 16.8211 39.9461C16.7481 40.1845 16.6283 40.406 16.4687 40.5975C16.3091 40.7891 16.1129 40.9469 15.8916 41.0617C15.6703 41.1765 15.4283 41.246 15.1798 41.2661C14.9313 41.2863 14.6813 41.2567 14.4444 41.1791C14.2074 41.1014 13.9884 40.9773 13.8 40.814L2.55 31.439C2.3389 31.263 2.16907 31.0428 2.05252 30.7939C1.93597 30.545 1.87556 30.2736 1.87556 29.9988C1.87556 29.7239 1.93597 29.4525 2.05252 29.2036C2.16907 28.9547 2.3389 28.7345 2.55 28.5585L13.8 19.1835C14.1823 18.8653 14.6753 18.7119 15.1707 18.7572C15.6661 18.8025 16.1231 19.0427 16.4414 19.4249C16.7597 19.8072 16.913 20.3003 16.8678 20.7956C16.8225 21.291 16.5823 21.7481 16.2 22.0663ZM57.45 28.5585L46.2 19.1835C46.0107 19.0259 45.7922 18.9072 45.5571 18.834C45.3219 18.7609 45.0746 18.7348 44.8293 18.7572C44.584 18.7796 44.3456 18.8501 44.1275 18.9647C43.9095 19.0793 43.7162 19.2357 43.5586 19.4249C43.2403 19.8072 43.087 20.3003 43.1322 20.7956C43.1775 21.291 43.4177 21.7481 43.8 22.0663L53.3203 29.9999L43.8 37.9335C43.6054 38.0893 43.4438 38.2824 43.3246 38.5014C43.2055 38.7205 43.1313 38.961 43.1062 39.2091C43.0812 39.4572 43.1059 39.7077 43.1789 39.9461C43.2519 40.1845 43.3717 40.406 43.5313 40.5975C43.6909 40.7891 43.8871 40.9469 44.1084 41.0617C44.3297 41.1765 44.5717 41.246 44.8202 41.2661C45.0687 41.2863 45.3187 41.2567 45.5556 41.1791C45.7926 41.1014 46.0116 40.9773 46.2 40.814L57.45 31.439C57.6611 31.263 57.8309 31.0428 57.9475 30.7939C58.064 30.545 58.1244 30.2736 58.1244 29.9988C58.1244 29.7239 58.064 29.4525 57.9475 29.2036C57.8309 28.9547 57.6611 28.7345 57.45 28.5585ZM38.1398 7.61244C37.9084 7.52841 37.6626 7.49079 37.4167 7.50173C37.1707 7.51267 36.9292 7.57196 36.7062 7.67621C36.4831 7.78046 36.2827 7.92763 36.1165 8.10931C35.9503 8.29099 35.8215 8.50364 35.7375 8.7351L20.7375 49.9851C20.6531 50.2167 20.6152 50.4626 20.626 50.7089C20.6367 50.9552 20.6959 51.1969 20.8002 51.4202C20.9045 51.6436 21.0518 51.8442 21.2337 52.0105C21.4155 52.1769 21.6284 52.3058 21.8602 52.3898C22.0656 52.4628 22.282 52.5 22.5 52.4999C22.8851 52.5 23.2608 52.3814 23.5761 52.1604C23.8914 51.9394 24.1311 51.6267 24.2625 51.2648L39.2625 10.0148C39.3465 9.78333 39.3841 9.53759 39.3732 9.2916C39.3623 9.0456 39.303 8.80417 39.1987 8.58109C39.0945 8.35801 38.9473 8.15765 38.7656 7.99145C38.5839 7.82525 38.3713 7.69646 38.1398 7.61244Z" fill="white"/>
</svg>
