<svg width="60" height="60" viewBox="0 0 60 60" fill="none" xmlns="http://www.w3.org/2000/svg">
<path d="M30 5.625C17.3836 5.625 7.5 11.3906 7.5 18.75V41.25C7.5 48.6094 17.3836 54.375 30 54.375C42.6164 54.375 52.5 48.6094 52.5 41.25V18.75C52.5 11.3906 42.6164 5.625 30 5.625ZM48.75 30C48.75 32.2547 46.9031 34.5539 43.6852 36.3094C40.0617 38.2852 35.2008 39.375 30 39.375C24.7992 39.375 19.9383 38.2852 16.3148 36.3094C13.0969 34.5539 11.25 32.2547 11.25 30V26.1C15.2484 29.6156 22.0852 31.875 30 31.875C37.9148 31.875 44.7516 29.6063 48.75 26.1V30ZM16.3148 12.4406C19.9383 10.4648 24.7992 9.375 30 9.375C35.2008 9.375 40.0617 10.4648 43.6852 12.4406C46.9031 14.1961 48.75 16.4953 48.75 18.75C48.75 21.0047 46.9031 23.3039 43.6852 25.0594C40.0617 27.0352 35.2008 28.125 30 28.125C24.7992 28.125 19.9383 27.0352 16.3148 25.0594C13.0969 23.3039 11.25 21.0047 11.25 18.75C11.25 16.4953 13.0969 14.1961 16.3148 12.4406ZM43.6852 47.5594C40.0617 49.5352 35.2008 50.625 30 50.625C24.7992 50.625 19.9383 49.5352 16.3148 47.5594C13.0969 45.8039 11.25 43.5047 11.25 41.25V37.35C15.2484 40.8656 22.0852 43.125 30 43.125C37.9148 43.125 44.7516 40.8563 48.75 37.35V41.25C48.75 43.5047 46.9031 45.8039 43.6852 47.5594Z" fill="white"/>
</svg>
