<svg width="60" height="60" viewBox="0 0 60 60" fill="none" xmlns="http://www.w3.org/2000/svg">
<path d="M59.0062 20.8452L30.8812 5.84524C30.61 5.70079 30.3073 5.62524 30 5.62524C29.6927 5.62524 29.39 5.70079 29.1187 5.84524L0.993752 20.8452C0.693762 21.0051 0.442878 21.2435 0.267939 21.535C0.093 21.8265 0.000587463 22.16 0.000587463 22.4999C0.000587463 22.8399 0.093 23.1734 0.267939 23.4649C0.442878 23.7563 0.693762 23.9947 0.993752 24.1546L7.5 27.6257V38.9741C7.49805 39.8951 7.83701 40.7843 8.45156 41.4702C11.5219 44.8898 18.4008 50.6249 30 50.6249C33.846 50.6567 37.6632 49.9601 41.25 48.5718V56.2499C41.25 56.7472 41.4475 57.2241 41.7992 57.5758C42.1508 57.9274 42.6277 58.1249 43.125 58.1249C43.6223 58.1249 44.0992 57.9274 44.4508 57.5758C44.8025 57.2241 45 56.7472 45 56.2499V46.7601C47.445 45.3487 49.6545 43.5638 51.5484 41.4702C52.163 40.7843 52.5019 39.8951 52.5 38.9741V27.6257L59.0062 24.1546C59.3062 23.9947 59.5571 23.7563 59.7321 23.4649C59.907 23.1734 59.9994 22.8399 59.9994 22.4999C59.9994 22.16 59.907 21.8265 59.7321 21.535C59.5571 21.2435 59.3062 21.0051 59.0062 20.8452ZM30 46.8749C19.8586 46.8749 13.8938 41.9202 11.25 38.9741V29.6249L29.1187 39.1546C29.39 39.2991 29.6927 39.3746 30 39.3746C30.3073 39.3746 30.61 39.2991 30.8812 39.1546L41.25 33.6257V44.4866C38.2969 45.8648 34.575 46.8749 30 46.8749ZM48.75 38.9648C47.626 40.212 46.3685 41.332 45 42.3046V31.6241L48.75 29.6249V38.9648ZM44.0625 27.8765L44.0109 27.846L30.8859 20.8452C30.448 20.6216 29.9398 20.5789 29.4707 20.7263C29.0016 20.8738 28.6093 21.1997 28.3781 21.6337C28.147 22.0677 28.0956 22.5751 28.235 23.0466C28.3744 23.5182 28.6935 23.9161 29.1234 24.1546L40.0781 29.9999L30 35.3741L5.85938 22.4999L30 9.62571L54.1406 22.4999L44.0625 27.8765Z" fill="white"/>
</svg>
