<svg width="60" height="60" viewBox="0 0 60 60" fill="none" xmlns="http://www.w3.org/2000/svg">
<path d="M49.9031 6.02098C49.6785 5.84597 49.417 5.72442 49.1384 5.66553C48.8599 5.60665 48.5715 5.61198 48.2953 5.68114L18.2953 13.1811C17.8897 13.2825 17.5296 13.5166 17.2722 13.8461C17.0149 14.1757 16.8751 14.5818 16.875 14.9999V40.7999C15.3109 39.7548 13.4423 39.2624 11.5663 39.4009C9.69024 39.5394 7.91428 40.3009 6.52057 41.5643C5.12686 42.8278 4.19535 44.5207 3.87402 46.3742C3.55269 48.2277 3.85998 50.1355 4.74707 51.7943C5.63416 53.4532 7.05017 54.768 8.77012 55.5299C10.4901 56.2919 12.4153 56.4571 14.24 55.9996C16.0646 55.542 17.684 54.4877 18.8409 53.0043C19.9977 51.521 20.6257 49.6935 20.625 47.8124V27.7147L46.875 21.1522V33.2999C45.3109 32.2548 43.4423 31.7624 41.5663 31.9009C39.6902 32.0394 37.9143 32.8009 36.5206 34.0643C35.1269 35.3278 34.1953 37.0207 33.874 38.8742C33.5527 40.7277 33.86 42.6355 34.7471 44.2943C35.6342 45.9532 37.0502 47.268 38.7701 48.0299C40.4901 48.7919 42.4153 48.9571 44.24 48.4996C46.0646 48.042 47.684 46.9877 48.8409 45.5043C49.9977 44.021 50.6257 42.1935 50.625 40.3124V7.49989C50.6251 7.21471 50.5601 6.93328 50.435 6.677C50.3099 6.42073 50.128 6.19636 49.9031 6.02098ZM12.1875 52.4999C11.2604 52.4999 10.3541 52.225 9.58328 51.7099C8.81242 51.1948 8.21161 50.4627 7.85683 49.6062C7.50204 48.7497 7.40921 47.8072 7.59008 46.8979C7.77095 45.9886 8.21739 45.1534 8.87295 44.4978C9.52851 43.8423 10.3637 43.3958 11.273 43.215C12.1823 43.0341 13.1248 43.1269 13.9813 43.4817C14.8379 43.8365 15.57 44.4373 16.085 45.2081C16.6001 45.979 16.875 46.8853 16.875 47.8124C16.875 49.0556 16.3812 50.2479 15.5021 51.1269C14.623 52.006 13.4307 52.4999 12.1875 52.4999ZM20.625 23.8475V16.4647L46.875 9.90223V17.285L20.625 23.8475ZM42.1875 44.9999C41.2604 44.9999 40.3541 44.725 39.5833 44.2099C38.8124 43.6948 38.2116 42.9627 37.8568 42.1062C37.502 41.2497 37.4092 40.3072 37.5901 39.3979C37.7709 38.4886 38.2174 37.6534 38.8729 36.9978C39.5285 36.3423 40.3637 35.8958 41.273 35.715C42.1823 35.5341 43.1248 35.6269 43.9813 35.9817C44.8379 36.3365 45.57 36.9373 46.085 37.7081C46.6001 38.479 46.875 39.3853 46.875 40.3124C46.875 40.928 46.7538 41.5375 46.5182 42.1062C46.2826 42.6749 45.9373 43.1917 45.5021 43.6269C45.0668 44.0622 44.5501 44.4075 43.9813 44.6431C43.4126 44.8786 42.8031 44.9999 42.1875 44.9999Z" fill="white"/>
</svg>
