<svg width="60" height="60" viewBox="0 0 60 60" fill="none" xmlns="http://www.w3.org/2000/svg">
<path d="M53.2781 6.72201C52.8066 6.25076 52.2179 5.91373 51.5728 5.74565C50.9276 5.57757 50.2494 5.58451 49.6078 5.76576H49.5727L4.58672 19.4158C3.85443 19.6264 3.20367 20.055 2.72109 20.6447C2.23851 21.2344 1.94702 21.9571 1.88543 22.7166C1.82383 23.476 1.99506 24.2363 2.37631 24.896C2.75757 25.5557 3.33075 26.0837 4.01953 26.4095L24.0867 35.9134L33.5906 55.9806C33.8907 56.6232 34.3683 57.1666 34.9672 57.5466C35.566 57.9266 36.2611 58.1273 36.9703 58.1251C37.0781 58.1251 37.1859 58.1204 37.2938 58.1111C38.0506 58.0498 38.7705 57.7585 39.357 57.2763C39.9435 56.7941 40.3685 56.1441 40.575 55.4134L54.2156 10.4275C54.2156 10.4158 54.2156 10.404 54.2156 10.3923C54.3992 9.75239 54.4092 9.07512 54.2444 8.43008C54.0796 7.78505 53.7461 7.1955 53.2781 6.72201ZM36.9914 54.34L36.9797 54.3728L27.7547 34.8986L38.8266 23.8244C39.1633 23.4699 39.3483 22.9978 39.3421 22.5089C39.3358 22.02 39.1388 21.5528 38.7931 21.2071C38.4473 20.8613 37.9802 20.6643 37.4912 20.6581C37.0023 20.6518 36.5303 20.8368 36.1758 21.1736L25.1016 32.2454L5.625 23.0204H5.65781L50.625 9.37513L36.9914 54.34Z" fill="white"/>
</svg>
