<svg width="60" height="60" viewBox="0 0 60 60" fill="none" xmlns="http://www.w3.org/2000/svg">
<path d="M24.375 48.75C24.375 49.2473 24.1775 49.7242 23.8258 50.0758C23.4742 50.4274 22.9973 50.625 22.5 50.625H11.25C10.7527 50.625 10.2758 50.4274 9.92418 50.0758C9.57254 49.7242 9.375 49.2473 9.375 48.75C9.375 48.2527 9.57254 47.7758 9.92418 47.4242C10.2758 47.0725 10.7527 46.875 11.25 46.875H22.5C22.9973 46.875 23.4742 47.0725 23.8258 47.4242C24.1775 47.7758 24.375 48.2527 24.375 48.75ZM16.875 41.25C16.875 40.7527 16.6775 40.2758 16.3258 39.9242C15.9742 39.5725 15.4973 39.375 15 39.375H7.5C7.00272 39.375 6.52581 39.5725 6.17417 39.9242C5.82254 40.2758 5.625 40.7527 5.625 41.25C5.625 41.7473 5.82254 42.2242 6.17417 42.5758C6.52581 42.9274 7.00272 43.125 7.5 43.125H15C15.4973 43.125 15.9742 42.9274 16.3258 42.5758C16.6775 42.2242 16.875 41.7473 16.875 41.25ZM60 45V46.875C60 47.8695 59.6049 48.8234 58.9016 49.5266C58.1984 50.2299 57.2446 50.625 56.25 50.625H34.5258C33.5371 50.6269 32.588 50.2367 31.8867 49.5398L6.74531 25.1765L6.72422 25.1554C6.02149 24.4523 5.62674 23.4988 5.62674 22.5047C5.62674 21.5105 6.02149 20.5571 6.72422 19.8539L21.7242 4.82576L21.7594 4.79295C22.4655 4.11271 23.4111 3.73794 24.3915 3.74978C25.3719 3.76163 26.3082 4.15913 26.9977 4.85623L28.9219 6.79685C29.5801 7.45604 29.9695 8.33665 30.0141 9.26717C30.2789 14.6297 33.9984 18.2461 39.6961 18.7054C40.6296 18.7857 41.4992 19.2124 42.1338 19.9017C42.7684 20.5909 43.122 21.4928 43.125 22.4297V28.125C43.125 30.1141 43.9152 32.0218 45.3217 33.4283C46.7282 34.8348 48.6359 35.625 50.625 35.625C53.1114 35.625 55.496 36.6127 57.2541 38.3709C59.0123 40.129 60 42.5136 60 45ZM56.25 45C56.25 43.5081 55.6574 42.0774 54.6025 41.0225C53.5476 39.9676 52.1168 39.375 50.625 39.375C48.4156 39.3776 46.255 38.7251 44.4164 37.5H37.5C37.0027 37.5 36.5258 37.3024 36.1742 36.9508C35.8225 36.5992 35.625 36.1223 35.625 35.625C35.625 35.1277 35.8225 34.6508 36.1742 34.2992C36.5258 33.9475 37.0027 33.75 37.5 33.75H40.8891C40.2162 32.5914 39.7573 31.3211 39.5344 30H35.625C35.1277 30 34.6508 29.8024 34.2992 29.4508C33.9475 29.0992 33.75 28.6223 33.75 28.125C33.75 27.6277 33.9475 27.1508 34.2992 26.7992C34.6508 26.4475 35.1277 26.25 35.625 26.25H39.375V22.4297C35.7586 22.1344 32.6062 20.789 30.2625 18.539C27.8273 16.1953 26.4469 13.0523 26.2781 9.43826L24.3445 7.49998L9.375 22.5L34.5047 46.8515L34.5258 46.8703H56.25V45Z" fill="white"/>
</svg>
