<svg width="60" height="60" viewBox="0 0 60 60" fill="none" xmlns="http://www.w3.org/2000/svg">
<path d="M30 30C30.0002 30.2813 29.9371 30.559 29.8154 30.8125C29.6936 31.0661 29.5164 31.2891 29.2969 31.4648L19.9219 38.9648C19.7295 39.1187 19.5087 39.2332 19.2721 39.3018C19.0355 39.3704 18.7877 39.3916 18.5428 39.3644C18.298 39.3372 18.0609 39.2621 17.8451 39.1432C17.6293 39.0244 17.439 38.8642 17.2852 38.6719C17.1313 38.4795 17.0168 38.2587 16.9482 38.0221C16.8796 37.7855 16.8584 37.5377 16.8856 37.2928C16.9128 37.048 16.9879 36.8109 17.1068 36.5951C17.2256 36.3793 17.3858 36.189 17.5781 36.0352L25.1227 30L17.5781 23.9648C17.3858 23.811 17.2256 23.6207 17.1068 23.4049C16.9879 23.1891 16.9128 22.952 16.8856 22.7072C16.8584 22.4623 16.8796 22.2145 16.9482 21.9779C17.0168 21.7413 17.1313 21.5205 17.2852 21.3281C17.439 21.1358 17.6293 20.9756 17.8451 20.8568C18.0609 20.7379 18.298 20.6628 18.5428 20.6356C18.7877 20.6084 19.0355 20.6296 19.2721 20.6982C19.5087 20.7668 19.7295 20.8813 19.9219 21.0352L29.2969 28.5352C29.5164 28.7109 29.6936 28.9339 29.8154 29.1875C29.9371 29.441 30.0002 29.7187 30 30ZM41.25 35.625H31.875C31.3777 35.625 30.9008 35.8225 30.5492 36.1742C30.1975 36.5258 30 37.0027 30 37.5C30 37.9973 30.1975 38.4742 30.5492 38.8258C30.9008 39.1775 31.3777 39.375 31.875 39.375H41.25C41.7473 39.375 42.2242 39.1775 42.5758 38.8258C42.9275 38.4742 43.125 37.9973 43.125 37.5C43.125 37.0027 42.9275 36.5258 42.5758 36.1742C42.2242 35.8225 41.7473 35.625 41.25 35.625ZM54.375 13.125V46.875C54.375 47.8696 53.9799 48.8234 53.2766 49.5266C52.5734 50.2299 51.6196 50.625 50.625 50.625H9.375C8.38044 50.625 7.42661 50.2299 6.72335 49.5266C6.02009 48.8234 5.625 47.8696 5.625 46.875V13.125C5.625 12.1304 6.02009 11.1766 6.72335 10.4733C7.42661 9.77009 8.38044 9.375 9.375 9.375H50.625C51.6196 9.375 52.5734 9.77009 53.2766 10.4733C53.9799 11.1766 54.375 12.1304 54.375 13.125ZM50.625 46.875V13.125H9.375V46.875H50.625Z" fill="white"/>
</svg>
